<svg xmlns="http://www.w3.org/2000/svg" xmlns:xlink="http://www.w3.org/1999/xlink" width="500" zoomAndPan="magnify" viewBox="0 0 375 374.999991" height="500" preserveAspectRatio="xMidYMid meet" version="1.0"><defs><clipPath id="8076a9698a"><path d="M 17 45 L 237 45 L 237 342.71875 L 17 342.71875 Z M 17 45 " clip-rule="nonzero"/></clipPath><clipPath id="3510688159"><path d="M 12.289062 41 L 221 41 L 221 342.71875 L 12.289062 342.71875 Z M 12.289062 41 " clip-rule="nonzero"/></clipPath><clipPath id="fd6328f5dc"><path d="M 252 148 L 362.539062 148 L 362.539062 187 L 252 187 Z M 252 148 " clip-rule="nonzero"/></clipPath><clipPath id="65b88a1469"><path d="M 209 325 L 221 325 L 221 342.71875 L 209 342.71875 Z M 209 325 " clip-rule="nonzero"/></clipPath></defs><g clip-path="url(#8076a9698a)"><path fill="#e1ebf4" d="M 230.101562 238.378906 C 227.089844 238.378906 224.355469 237.011719 222.441406 235.09375 C 211.496094 244.675781 198.085938 251.792969 183.308594 255.351562 C 182.761719 256.445312 182.214844 257.265625 181.667969 258.085938 C 178.660156 262.191406 173.734375 264.65625 168.535156 264.65625 C 164.976562 264.65625 161.417969 263.5625 158.683594 261.371094 L 147.738281 253.160156 C 147.738281 253.160156 147.464844 252.886719 147.464844 252.886719 C 145.824219 253.980469 143.632812 254.527344 141.445312 254.527344 C 140.351562 254.527344 139.527344 254.527344 138.433594 254.253906 C 99.578125 243.308594 72.488281 207.449219 72.488281 167.214844 C 72.488281 125.0625 102.042969 88.660156 142.539062 79.355469 C 143.085938 78.261719 143.632812 77.4375 144.179688 76.34375 C 147.191406 72.238281 152.117188 69.773438 157.316406 69.773438 C 160.871094 69.773438 164.15625 70.871094 167.167969 73.058594 L 178.113281 81.269531 C 178.113281 81.269531 178.386719 81.542969 178.386719 81.542969 C 180.027344 80.449219 182.214844 79.902344 184.132812 79.902344 C 185.226562 79.902344 186.046875 79.902344 187.140625 80.175781 C 200.550781 84.007812 212.316406 90.578125 222.167969 99.335938 C 224.082031 97.417969 226.816406 96.050781 229.828125 96.050781 L 232.5625 96.050781 C 232.015625 95.230469 231.742188 94.136719 231.195312 93.3125 C 207.664062 46.785156 160.871094 45.960938 160.871094 45.960938 C 35 47.332031 42.9375 165.027344 42.9375 165.027344 C 42.9375 165.027344 26.246094 189.386719 19.40625 203.34375 C 12.5625 217.304688 30.898438 219.769531 30.898438 219.769531 C 30.898438 219.769531 27.339844 226.882812 30.898438 235.371094 C 34.179688 243.855469 33.359375 249.875 33.359375 249.875 C 33.359375 249.875 32.539062 270.128906 33.359375 289.835938 C 34.179688 309.542969 66.195312 300.511719 88.632812 304.890625 C 110.796875 309.542969 114.902344 342.390625 114.902344 342.390625 L 214.777344 342.390625 L 214.777344 266.847656 L 232.5625 247.140625 C 233.933594 244.128906 235.300781 241.390625 236.667969 238.378906 Z M 230.101562 238.378906 " fill-opacity="1" fill-rule="nonzero"/></g><g clip-path="url(#3510688159)"><path fill="#2d4356" d="M 82.066406 298.046875 C 76.59375 296.953125 70.847656 296.953125 65.648438 296.679688 C 56.890625 296.40625 48.683594 296.40625 41.84375 291.753906 C 39.105469 289.835938 37.464844 286.277344 38.285156 282.996094 L 39.378906 277.519531 C 40.199219 272.59375 40.472656 264.65625 38.558594 258.910156 L 36.917969 255.078125 C 36.917969 255.078125 42.390625 249.875 42.390625 249.875 C 45.671875 246.589844 44.851562 240.023438 40.472656 238.378906 L 34.179688 235.917969 L 37.738281 224.695312 C 38.832031 221.136719 37.738281 217.03125 34.726562 214.839844 C 33.632812 214.019531 31.992188 213.472656 30.625 212.925781 C 27.066406 212.105469 24.601562 211.007812 23.78125 209.367188 C 22.960938 207.449219 23.78125 204.988281 24.054688 204.441406 L 48.136719 168.308594 C 50.050781 165.300781 50.597656 161.742188 49.230469 158.457031 C 38.285156 126.433594 68.109375 84.554688 94.378906 68.679688 C 127.214844 48.699219 181.121094 44.320312 211.222656 71.964844 C 213.410156 74.15625 216.96875 73.878906 218.882812 71.691406 C 221.070312 69.5 220.796875 65.941406 218.609375 64.027344 C 184.40625 32.277344 125.847656 36.65625 88.632812 59.375 C 59.902344 76.890625 25.699219 123.421875 38.832031 162.015625 C 38.832031 162.289062 38.832031 162.289062 38.832031 162.289062 L 14.480469 198.691406 C 12.835938 201.15625 12.289062 204.441406 12.289062 207.449219 C 12.289062 209.640625 12.835938 211.832031 13.65625 214.019531 C 15.847656 218.398438 19.953125 221.683594 26.246094 223.324219 L 22.140625 235.917969 C 22.140625 236.191406 21.867188 236.464844 21.867188 237.011719 C 21.59375 240.296875 23.507812 242.484375 24.601562 243.582031 C 25.972656 244.949219 28.160156 245.496094 29.800781 246.316406 C 28.707031 247.414062 27.066406 248.507812 26.246094 250.148438 C 24.878906 252.066406 24.601562 254.527344 25.425781 256.71875 L 27.613281 262.738281 C 28.707031 266.023438 28.707031 272.046875 28.160156 275.605469 L 27.066406 281.078125 C 25.699219 289.015625 28.980469 296.953125 35.546875 301.058594 C 45.125 307.355469 55.25 307.628906 65.101562 307.628906 C 70.300781 307.628906 74.953125 307.902344 79.605469 308.722656 C 96.023438 312.007812 106.96875 322.683594 108.609375 337.460938 C 108.882812 340.472656 111.617188 342.664062 114.628906 342.390625 C 117.636719 342.117188 119.828125 339.378906 119.554688 336.367188 C 117.363281 316.933594 103.136719 302.429688 82.066406 298.046875 Z M 82.066406 298.046875 " fill-opacity="1" fill-rule="nonzero"/></g><path fill="#2d4356" d="M 299.605469 117.949219 C 292.488281 117.949219 286.46875 122.601562 284.007812 128.894531 L 244.605469 128.894531 C 246.246094 132.453125 247.613281 136.011719 248.980469 139.84375 L 284.28125 139.84375 C 286.46875 146.140625 292.488281 150.792969 299.605469 150.792969 C 308.632812 150.792969 316.023438 143.402344 316.023438 134.371094 C 316.023438 125.339844 308.632812 117.949219 299.605469 117.949219 Z M 299.605469 139.84375 C 296.59375 139.84375 294.132812 137.382812 294.132812 134.371094 C 294.132812 131.359375 296.59375 128.894531 299.605469 128.894531 C 302.613281 128.894531 305.078125 131.359375 305.078125 134.371094 C 305.078125 137.382812 302.613281 139.84375 299.605469 139.84375 Z M 299.605469 139.84375 " fill-opacity="1" fill-rule="nonzero"/><path fill="#ffdb80" d="M 305.078125 134.371094 C 305.078125 137.382812 302.613281 139.84375 299.605469 139.84375 C 296.59375 139.84375 294.132812 137.382812 294.132812 134.371094 C 294.132812 131.359375 296.59375 128.894531 299.605469 128.894531 C 302.613281 128.894531 305.078125 131.085938 305.078125 134.371094 Z M 305.078125 134.371094 " fill-opacity="1" fill-rule="nonzero"/><path fill="#2d4356" d="M 309.730469 243.855469 C 306.445312 243.855469 303.433594 244.675781 300.699219 246.042969 L 270.324219 220.863281 C 267.316406 218.125 263.484375 216.484375 259.378906 216.484375 L 238.3125 216.484375 C 235.847656 220.316406 232.839844 224.148438 229.828125 227.433594 L 259.378906 227.433594 C 260.75 227.433594 262.117188 228.253906 262.9375 229.074219 L 292.761719 253.707031 C 291.394531 256.445312 290.574219 259.457031 290.574219 262.738281 C 290.574219 273.414062 299.058594 281.898438 309.730469 281.898438 C 320.402344 281.898438 328.882812 273.414062 328.882812 262.738281 C 328.882812 252.339844 320.402344 243.855469 309.730469 243.855469 Z M 309.730469 271.226562 C 305.078125 271.226562 301.519531 267.667969 301.519531 263.015625 C 301.519531 258.359375 305.078125 254.800781 309.730469 254.800781 C 314.105469 254.800781 317.9375 258.359375 317.9375 263.015625 C 317.9375 267.394531 314.378906 271.226562 309.730469 271.226562 Z M 309.730469 271.226562 " fill-opacity="1" fill-rule="nonzero"/><path fill="#fc785e" d="M 317.9375 263.015625 C 317.9375 267.667969 314.105469 271.226562 309.730469 271.226562 C 305.078125 271.226562 301.519531 267.667969 301.519531 263.015625 C 301.519531 258.359375 305.078125 254.800781 309.730469 254.800781 C 314.378906 254.800781 317.9375 258.359375 317.9375 263.015625 Z M 317.9375 263.015625 " fill-opacity="1" fill-rule="nonzero"/><g clip-path="url(#fd6328f5dc)"><path fill="#2d4356" d="M 343.386719 148.054688 C 334.628906 148.054688 327.515625 153.804688 325.050781 161.742188 L 252.8125 161.742188 C 252.8125 163.65625 253.085938 165.300781 253.085938 167.214844 C 253.085938 169.132812 253.085938 170.773438 252.8125 172.691406 L 325.050781 172.691406 C 327.515625 180.628906 334.902344 186.375 343.386719 186.375 C 354.058594 186.375 362.539062 177.890625 362.539062 167.214844 C 362.539062 156.539062 354.058594 148.054688 343.386719 148.054688 Z M 343.386719 175.425781 C 338.734375 175.425781 335.175781 171.867188 335.175781 167.214844 C 335.175781 162.5625 338.734375 159.003906 343.386719 159.003906 C 348.039062 159.003906 351.59375 162.5625 351.59375 167.214844 C 351.59375 171.867188 348.039062 175.425781 343.386719 175.425781 Z M 343.386719 175.425781 " fill-opacity="1" fill-rule="nonzero"/></g><path fill="#fc785e" d="M 351.59375 167.214844 C 351.59375 171.867188 348.039062 175.425781 343.386719 175.425781 C 338.734375 175.425781 335.175781 171.867188 335.175781 167.214844 C 335.175781 162.5625 338.734375 159.003906 343.386719 159.003906 C 348.039062 159.003906 351.59375 162.5625 351.59375 167.214844 Z M 351.59375 167.214844 " fill-opacity="1" fill-rule="nonzero"/><path fill="#2d4356" d="M 201.371094 150.246094 C 202.464844 148.054688 203.011719 145.59375 202.738281 143.128906 C 202.464844 139.296875 200.824219 135.738281 198.085938 133 L 195.078125 129.992188 C 192.066406 126.980469 188.234375 125.339844 184.132812 125.339844 C 181.941406 125.339844 179.753906 125.886719 177.835938 126.707031 C 175.648438 120.957031 170.175781 116.851562 163.335938 116.851562 L 158.957031 116.851562 C 152.117188 116.851562 146.644531 120.957031 144.453125 126.707031 C 142.539062 125.886719 140.351562 125.339844 138.160156 125.339844 C 134.054688 125.339844 130.226562 126.980469 127.214844 129.992188 L 124.207031 133 C 119.554688 137.65625 118.460938 144.769531 120.921875 150.246094 C 115.175781 152.160156 110.796875 157.910156 110.796875 164.480469 L 110.796875 168.859375 C 110.796875 175.425781 114.902344 181.175781 120.921875 183.363281 C 118.1875 188.839844 119.28125 195.957031 124.207031 200.609375 L 127.214844 203.617188 C 130.226562 206.628906 134.054688 208.273438 138.160156 208.273438 C 140.351562 208.273438 142.539062 207.722656 144.453125 206.902344 C 146.644531 212.652344 152.117188 217.03125 158.957031 217.03125 L 163.335938 217.03125 C 170.175781 217.03125 175.648438 212.925781 177.835938 206.902344 C 179.753906 207.722656 181.941406 208.273438 184.132812 208.273438 C 188.234375 208.273438 192.066406 206.628906 195.078125 203.617188 L 198.085938 200.609375 C 201.097656 197.597656 202.738281 193.765625 202.738281 189.660156 C 202.738281 187.46875 202.191406 185.28125 201.371094 183.363281 C 207.117188 181.175781 211.222656 175.699219 211.222656 168.859375 L 211.222656 164.480469 C 211.222656 157.910156 207.117188 152.160156 201.371094 150.246094 Z M 200.277344 168.859375 C 200.277344 171.320312 198.632812 173.238281 196.445312 173.238281 L 192.613281 173.238281 C 191.792969 173.238281 190.699219 173.785156 190.699219 174.878906 C 189.878906 177.34375 189.058594 179.804688 187.960938 181.722656 C 187.414062 182.542969 187.6875 183.636719 188.234375 184.1875 L 190.972656 186.921875 C 192.613281 188.292969 192.339844 191.027344 190.699219 192.671875 L 187.414062 195.957031 C 186.59375 196.777344 185.226562 197.324219 184.132812 197.324219 C 183.035156 197.324219 182.214844 197.050781 181.667969 196.230469 L 178.933594 193.492188 C 178.386719 192.945312 177.289062 192.671875 176.46875 193.21875 C 174.28125 194.585938 172.089844 195.40625 169.628906 195.957031 C 168.808594 196.230469 167.988281 197.050781 167.988281 197.871094 L 167.988281 201.703125 C 167.988281 203.894531 166.070312 205.535156 163.609375 205.535156 L 159.230469 205.535156 C 156.769531 205.535156 154.851562 203.894531 154.851562 201.703125 L 154.851562 197.871094 C 154.851562 197.050781 154.304688 196.230469 153.210938 195.957031 C 151.84375 195.679688 150.199219 195.132812 148.832031 194.3125 C 147.464844 193.765625 145.277344 191.847656 143.632812 193.21875 L 140.898438 195.957031 C 140.078125 196.777344 139.253906 197.050781 138.160156 197.050781 C 137.066406 197.050781 135.972656 196.503906 134.878906 195.679688 L 131.867188 192.671875 C 130.226562 191.027344 129.953125 188.292969 131.59375 186.921875 L 134.332031 184.1875 C 135.152344 183.363281 135.152344 182.542969 134.605469 181.722656 C 133.234375 179.53125 132.414062 177.34375 131.59375 174.878906 C 131.320312 174.058594 130.5 173.238281 129.679688 173.238281 L 125.847656 173.238281 C 123.660156 173.238281 122.015625 171.320312 122.015625 168.859375 L 122.015625 164.480469 C 122.015625 162.015625 123.660156 160.097656 125.847656 160.097656 L 129.679688 160.097656 C 130.5 160.097656 131.320312 159.550781 131.59375 158.457031 C 132.414062 155.992188 133.234375 153.53125 134.605469 151.613281 C 135.152344 150.792969 134.878906 149.699219 134.332031 149.152344 L 131.59375 146.414062 C 130.226562 144.769531 130.226562 142.308594 131.867188 140.664062 L 134.878906 137.65625 C 135.699219 136.832031 137.066406 136.285156 138.160156 136.285156 C 139.253906 136.285156 140.078125 136.558594 140.898438 137.382812 C 140.898438 137.382812 143.632812 140.117188 143.632812 140.117188 C 144.179688 140.664062 145.277344 140.941406 146.097656 140.390625 C 148.285156 139.023438 150.75 138.203125 152.9375 137.382812 C 153.757812 137.109375 154.578125 136.285156 154.578125 135.464844 L 154.578125 131.632812 C 154.578125 129.445312 156.496094 127.800781 158.957031 127.800781 L 163.335938 127.800781 C 165.796875 127.800781 167.714844 129.445312 167.714844 131.632812 L 167.714844 135.464844 C 167.714844 136.558594 168.261719 137.109375 169.355469 137.382812 C 171.816406 137.929688 174.28125 139.023438 176.195312 140.390625 C 177.015625 140.941406 178.113281 140.664062 178.660156 140.117188 L 181.394531 137.382812 C 184.679688 134.097656 188.234375 138.75 190.425781 140.941406 C 192.066406 142.582031 192.339844 145.320312 190.699219 146.6875 L 187.960938 149.425781 C 187.140625 150.246094 187.140625 151.066406 187.6875 151.886719 C 188.78125 154.078125 189.878906 156.265625 190.425781 158.730469 C 190.699219 159.550781 191.519531 160.371094 192.339844 160.371094 L 196.171875 160.371094 C 198.359375 160.371094 200.003906 162.289062 200.003906 164.753906 L 200.003906 168.859375 Z M 200.277344 168.859375 " fill-opacity="1" fill-rule="nonzero"/><path fill="#81d9e3" d="M 196.445312 160.371094 L 192.613281 160.371094 C 191.792969 160.371094 190.699219 159.824219 190.699219 158.730469 C 189.878906 156.265625 189.058594 153.804688 187.960938 151.886719 C 187.414062 151.066406 187.6875 149.972656 188.234375 149.425781 L 190.972656 146.6875 C 192.613281 145.046875 192.339844 142.582031 190.699219 140.941406 C 188.507812 138.75 184.953125 134.371094 181.667969 137.382812 L 178.933594 140.117188 C 178.113281 140.664062 177.289062 140.941406 176.46875 140.390625 C 174.28125 139.023438 172.089844 138.203125 169.628906 137.382812 C 168.808594 137.109375 167.988281 136.285156 167.988281 135.464844 L 167.988281 131.632812 C 167.988281 129.445312 166.070312 127.800781 163.609375 127.800781 L 159.230469 127.800781 C 156.769531 127.800781 154.851562 129.445312 154.851562 131.632812 L 154.851562 135.464844 C 154.851562 136.558594 154.304688 137.109375 153.210938 137.382812 C 150.75 137.929688 148.558594 139.023438 146.371094 140.390625 C 145.550781 140.941406 144.453125 140.664062 143.90625 140.117188 C 143.90625 140.117188 141.171875 137.382812 141.171875 137.382812 C 140.351562 136.558594 139.527344 136.285156 138.433594 136.285156 C 137.339844 136.285156 136.246094 136.832031 135.152344 137.65625 L 132.140625 140.664062 C 130.5 142.308594 130.226562 145.046875 131.867188 146.414062 L 134.605469 149.152344 C 135.425781 149.972656 135.425781 150.792969 134.878906 151.613281 C 133.507812 153.804688 132.6875 155.992188 131.867188 158.457031 C 131.59375 159.277344 130.773438 160.097656 129.953125 160.097656 L 126.121094 160.097656 C 123.933594 160.097656 122.289062 162.015625 122.289062 164.476562 L 122.289062 168.859375 C 122.289062 171.320312 123.933594 173.238281 126.121094 173.238281 L 129.953125 173.238281 C 130.773438 173.238281 131.59375 173.785156 131.867188 174.878906 C 132.6875 177.34375 133.507812 179.804688 134.878906 181.722656 C 135.425781 182.542969 135.152344 183.636719 134.605469 184.1875 L 131.867188 186.921875 C 130.5 188.292969 130.5 191.027344 132.140625 192.671875 L 135.152344 195.679688 C 135.972656 196.503906 137.339844 197.050781 138.433594 197.050781 C 139.527344 197.050781 140.351562 196.777344 141.171875 195.953125 L 143.90625 193.21875 C 145.550781 191.574219 147.464844 193.492188 149.105469 194.3125 C 150.472656 194.859375 152.117188 195.40625 153.484375 195.953125 C 154.304688 196.230469 155.125 197.050781 155.125 197.871094 L 155.125 201.703125 C 155.125 203.894531 157.042969 205.535156 159.503906 205.535156 L 163.882812 205.535156 C 166.34375 205.535156 168.261719 203.894531 168.261719 201.703125 L 168.261719 197.871094 C 168.261719 197.050781 168.808594 196.230469 169.902344 195.953125 C 172.363281 195.132812 174.828125 194.3125 176.742188 193.21875 C 177.5625 192.671875 178.660156 192.945312 179.207031 193.492188 L 181.941406 196.230469 C 182.761719 197.050781 183.585938 197.324219 184.40625 197.324219 C 185.5 197.324219 186.59375 196.777344 187.6875 195.953125 L 190.699219 192.945312 C 192.339844 191.300781 192.613281 188.566406 190.972656 187.195312 L 188.234375 184.460938 C 187.414062 183.636719 187.414062 182.816406 187.960938 181.996094 C 189.058594 179.804688 190.152344 177.617188 190.699219 175.152344 C 190.972656 174.332031 191.792969 173.511719 192.613281 173.511719 L 196.445312 173.511719 C 198.632812 173.511719 200.277344 171.59375 200.277344 169.132812 L 200.277344 164.480469 C 200.277344 162.289062 198.632812 160.371094 196.445312 160.371094 Z M 161.144531 188.839844 C 149.105469 188.839844 139.253906 178.984375 139.253906 166.941406 C 139.253906 154.898438 149.105469 145.046875 161.144531 145.046875 C 173.1875 145.046875 183.035156 154.898438 183.035156 166.941406 C 183.035156 178.984375 173.1875 188.839844 161.144531 188.839844 Z M 161.144531 188.839844 " fill-opacity="1" fill-rule="nonzero"/><path fill="#2d4356" d="M 161.144531 144.769531 C 149.105469 144.769531 139.253906 154.625 139.253906 166.667969 C 139.253906 178.710938 149.105469 188.566406 161.144531 188.566406 C 173.1875 188.566406 183.035156 178.710938 183.035156 166.667969 C 183.035156 154.625 173.1875 144.769531 161.144531 144.769531 Z M 161.144531 177.890625 C 155.125 177.890625 150.199219 172.964844 150.199219 166.941406 C 150.199219 160.921875 155.125 155.992188 161.144531 155.992188 C 167.167969 155.992188 172.089844 160.921875 172.089844 166.941406 C 172.089844 172.964844 167.167969 177.890625 161.144531 177.890625 Z M 161.144531 177.890625 " fill-opacity="1" fill-rule="nonzero"/><path fill="#2d4356" d="M 214.777344 273.960938 C 211.769531 273.960938 209.304688 276.425781 209.304688 279.4375 L 209.304688 309.542969 C 209.304688 312.554688 211.769531 315.019531 214.777344 315.019531 C 217.789062 315.019531 220.25 312.554688 220.25 309.542969 L 220.25 279.4375 C 220.25 276.425781 217.789062 273.960938 214.777344 273.960938 Z M 214.777344 273.960938 " fill-opacity="1" fill-rule="nonzero"/><g clip-path="url(#65b88a1469)"><path fill="#2d4356" d="M 214.777344 325.96875 C 211.769531 325.96875 209.304688 328.429688 209.304688 331.441406 L 209.304688 336.914062 C 209.304688 339.925781 211.769531 342.390625 214.777344 342.390625 C 217.789062 342.390625 220.25 339.925781 220.25 336.914062 L 220.25 331.441406 C 220.25 328.429688 217.789062 325.96875 214.777344 325.96875 Z M 214.777344 325.96875 " fill-opacity="1" fill-rule="nonzero"/></g><path fill="#2d4356" d="M 94.378906 167.214844 C 94.378906 133 119.828125 104.261719 152.9375 99.609375 C 151.570312 101.523438 151.570312 103.988281 152.9375 105.90625 C 154.578125 108.367188 158.136719 108.914062 160.597656 107 L 171.542969 98.789062 C 172.914062 97.695312 173.734375 96.050781 173.734375 94.410156 C 173.734375 92.765625 172.914062 91.125 171.542969 90.03125 L 160.597656 81.816406 C 158.136719 79.902344 154.851562 80.449219 152.9375 82.914062 C 151.570312 84.554688 151.570312 86.746094 152.390625 88.660156 C 113.535156 93.585938 83.433594 126.980469 83.433594 167.214844 C 83.433594 203.617188 108.0625 234.273438 141.445312 243.582031 C 141.171875 242.484375 140.898438 241.117188 140.898438 240.023438 C 140.898438 237.558594 141.445312 234.820312 142.539062 232.632812 C 114.628906 223.875 94.378906 197.871094 94.378906 167.214844 Z M 94.378906 167.214844 " fill-opacity="1" fill-rule="nonzero"/><path fill="#2d4356" d="M 242.140625 167.214844 C 242.140625 130.8125 217.515625 100.15625 184.40625 90.851562 C 184.679688 91.945312 184.679688 93.3125 184.679688 94.410156 C 184.679688 97.144531 184.132812 99.609375 182.761719 101.800781 C 210.949219 110.558594 231.195312 136.558594 231.195312 167.214844 C 231.195312 201.703125 205.75 230.167969 172.640625 234.820312 C 174.007812 232.90625 174.007812 230.167969 172.640625 228.253906 C 170.722656 225.789062 167.441406 225.242188 164.976562 227.15625 L 154.03125 235.371094 C 152.664062 236.464844 151.84375 238.105469 151.84375 239.75 C 151.84375 241.390625 152.664062 243.03125 154.03125 244.128906 L 164.976562 252.339844 C 167.441406 253.980469 170.722656 253.707031 172.640625 251.246094 C 174.007812 249.601562 174.007812 247.414062 173.1875 245.769531 C 212.042969 240.84375 242.140625 207.449219 242.140625 167.214844 Z M 242.140625 167.214844 " fill-opacity="1" fill-rule="nonzero"/><path fill="#2d4356" d="M 309.730469 53.078125 C 299.058594 53.078125 290.574219 61.5625 290.574219 72.238281 C 290.574219 75.25 291.394531 78.261719 292.761719 80.996094 L 263.210938 105.632812 C 262.117188 106.453125 261.023438 107.273438 259.652344 107.273438 L 230.101562 107.273438 C 233.113281 110.832031 235.847656 114.390625 238.585938 118.222656 L 259.378906 118.222656 C 263.484375 118.222656 267.316406 116.851562 270.324219 113.84375 L 300.152344 88.933594 C 302.886719 90.578125 306.171875 91.398438 309.730469 91.398438 C 320.402344 91.398438 328.882812 82.914062 328.882812 72.238281 C 328.882812 61.5625 320.402344 53.078125 309.730469 53.078125 Z M 309.730469 80.449219 C 305.078125 80.449219 301.519531 76.890625 301.519531 72.238281 C 301.519531 67.859375 305.078125 64.027344 309.730469 64.027344 C 314.105469 64.027344 317.9375 67.859375 317.9375 72.238281 C 317.9375 76.890625 314.378906 80.449219 309.730469 80.449219 Z M 309.730469 80.449219 " fill-opacity="1" fill-rule="nonzero"/><path fill="#fc785e" d="M 317.9375 72.238281 C 317.9375 76.890625 314.105469 80.449219 309.730469 80.449219 C 305.078125 80.449219 301.519531 76.890625 301.519531 72.238281 C 301.519531 67.859375 305.078125 64.027344 309.730469 64.027344 C 314.378906 64.027344 317.9375 67.859375 317.9375 72.238281 Z M 317.9375 72.238281 " fill-opacity="1" fill-rule="nonzero"/><path fill="#2d4356" d="M 299.605469 183.636719 C 292.488281 183.636719 286.46875 188.292969 284.007812 194.585938 L 248.980469 194.585938 C 247.886719 198.417969 246.246094 201.976562 244.605469 205.535156 L 284.28125 205.535156 C 286.46875 211.832031 292.488281 216.484375 299.878906 216.484375 C 308.90625 216.484375 316.296875 209.09375 316.296875 200.0625 C 316.296875 191.027344 308.632812 183.636719 299.605469 183.636719 Z M 299.605469 205.535156 C 296.59375 205.535156 294.132812 203.070312 294.132812 200.0625 C 294.132812 197.050781 296.59375 194.585938 299.605469 194.585938 C 302.613281 194.585938 305.078125 197.050781 305.078125 200.0625 C 305.078125 203.070312 302.613281 205.535156 299.605469 205.535156 Z M 299.605469 205.535156 " fill-opacity="1" fill-rule="nonzero"/><path fill="#ffdb80" d="M 305.078125 200.0625 C 305.078125 203.070312 302.613281 205.535156 299.605469 205.535156 C 296.59375 205.535156 294.132812 203.070312 294.132812 200.0625 C 294.132812 197.050781 296.59375 194.585938 299.605469 194.585938 C 302.613281 194.585938 305.078125 197.050781 305.078125 200.0625 Z M 305.078125 200.0625 " fill-opacity="1" fill-rule="nonzero"/><path fill="#ffffff" d="M 218.882812 77.164062 C 216.695312 79.355469 213.410156 79.628906 211.222656 77.4375 C 181.121094 49.792969 127.214844 54.171875 94.378906 74.15625 C 72.488281 87.292969 48.410156 118.222656 47.042969 146.6875 C 45.398438 116.851562 71.121094 82.640625 94.378906 68.679688 C 127.214844 48.699219 181.121094 44.320312 211.222656 71.964844 C 213.410156 74.15625 216.96875 73.878906 218.882812 71.691406 C 219.15625 71.417969 219.429688 71.144531 219.703125 70.597656 C 220.796875 72.785156 220.523438 75.523438 218.882812 77.164062 Z M 218.882812 77.164062 " fill-opacity="0.5" fill-rule="nonzero"/><path fill="#0f423c" d="M 48.136719 168.308594 L 24.054688 204.441406 C 24.054688 204.167969 23.78125 204.167969 23.78125 203.894531 C 22.960938 201.976562 23.78125 199.511719 24.054688 198.964844 L 48.136719 162.835938 C 48.957031 161.742188 49.230469 160.648438 49.503906 159.277344 C 50.324219 162.289062 49.777344 165.574219 48.136719 168.308594 Z M 48.136719 168.308594 " fill-opacity="0.3" fill-rule="nonzero"/><path fill="#9fa5aa" d="M 119.554688 330.894531 C 119.554688 331.714844 119.554688 332.808594 119.28125 333.632812 C 115.996094 315.566406 102.042969 302.15625 82.066406 298.046875 C 76.59375 296.953125 70.847656 296.679688 65.648438 296.679688 C 56.890625 296.40625 48.683594 296.40625 41.84375 291.753906 C 39.105469 289.835938 37.464844 286.277344 38.285156 282.996094 L 38.558594 281.625 C 39.105469 283.542969 40.199219 285.183594 42.117188 286.277344 C 48.957031 290.933594 57.164062 290.933594 65.921875 291.207031 C 71.394531 291.207031 76.867188 291.480469 82.339844 292.574219 C 103.136719 296.953125 117.363281 311.460938 119.554688 330.894531 Z M 119.554688 330.894531 " fill-opacity="0.5" fill-rule="nonzero"/><path fill="#ad9359" d="M 305.078125 134.371094 C 305.078125 137.382812 302.613281 139.84375 299.605469 139.84375 C 296.59375 139.84375 294.132812 137.382812 294.132812 134.371094 C 294.132812 133.277344 294.40625 132.453125 294.953125 131.632812 C 295.773438 133.277344 297.6875 134.371094 299.605469 134.371094 C 301.519531 134.371094 303.433594 133.277344 304.257812 131.632812 C 304.804688 132.453125 305.078125 133.277344 305.078125 134.371094 Z M 305.078125 134.371094 " fill-opacity="0.45" fill-rule="nonzero"/><path fill="#a54b3f" d="M 317.9375 263.015625 C 317.9375 267.667969 314.105469 271.226562 309.730469 271.226562 C 305.078125 271.226562 301.519531 267.667969 301.519531 263.015625 C 301.519531 261.917969 301.792969 261.097656 302.066406 260.277344 C 303.160156 263.5625 306.171875 265.75 309.730469 265.75 C 313.285156 265.75 316.296875 263.5625 317.390625 260.277344 C 317.9375 261.097656 317.9375 261.917969 317.9375 263.015625 Z M 317.9375 263.015625 " fill-opacity="0.5" fill-rule="nonzero"/><path fill="#a54b3f" d="M 351.59375 167.214844 C 351.59375 171.867188 348.039062 175.425781 343.386719 175.425781 C 338.734375 175.425781 335.175781 171.867188 335.175781 167.214844 C 335.175781 166.394531 335.449219 165.300781 335.722656 164.480469 C 336.820312 167.761719 339.828125 169.953125 343.386719 169.953125 C 346.941406 169.953125 349.953125 167.761719 351.046875 164.480469 C 351.320312 165.300781 351.59375 166.394531 351.59375 167.214844 Z M 351.59375 167.214844 " fill-opacity="0.5" fill-rule="nonzero"/><path fill="#e8fbfc" d="M 200.277344 164.753906 L 200.277344 169.132812 C 200.277344 169.40625 200.277344 169.40625 200.277344 169.679688 C 200.003906 167.488281 198.359375 165.847656 196.445312 165.847656 L 192.613281 165.847656 C 191.792969 165.847656 190.699219 165.300781 190.699219 164.203125 C 189.878906 161.742188 189.058594 159.277344 187.960938 157.363281 C 187.414062 156.539062 187.6875 155.445312 188.234375 154.898438 L 189.058594 154.078125 C 189.878906 155.71875 190.425781 157.363281 190.972656 159.003906 C 191.246094 159.824219 192.066406 160.648438 192.886719 160.648438 L 196.71875 160.648438 C 198.632812 160.371094 200.277344 162.289062 200.277344 164.753906 Z M 200.277344 164.753906 " fill-opacity="0.4" fill-rule="nonzero"/><path fill="#e8fbfc" d="M 134.605469 157.089844 C 133.234375 159.277344 132.414062 161.46875 131.59375 163.929688 C 131.320312 164.753906 130.5 165.574219 129.679688 165.574219 L 125.847656 165.574219 C 123.933594 165.574219 122.289062 167.214844 122.015625 169.40625 C 122.015625 169.132812 122.015625 169.132812 122.015625 168.859375 L 122.015625 164.480469 C 122.015625 162.015625 123.660156 160.097656 125.847656 160.097656 L 129.679688 160.097656 C 130.5 160.097656 131.320312 159.550781 131.59375 158.457031 C 132.140625 156.816406 132.6875 155.171875 133.507812 153.53125 L 134.332031 154.351562 C 134.878906 155.445312 134.878906 156.265625 134.605469 157.089844 Z M 134.605469 157.089844 " fill-opacity="0.4" fill-rule="nonzero"/><path fill="#e8fbfc" d="M 190.699219 146.414062 C 190.699219 146.414062 190.425781 146.140625 190.425781 146.140625 C 188.234375 143.949219 184.679688 139.570312 181.394531 142.582031 L 178.660156 145.320312 C 177.835938 145.867188 177.015625 146.140625 176.195312 145.59375 C 174.007812 144.222656 171.816406 143.402344 169.355469 142.855469 C 168.535156 142.582031 167.714844 141.761719 167.714844 140.941406 L 167.714844 137.109375 C 167.714844 134.917969 165.796875 133.277344 163.335938 133.277344 L 158.957031 133.277344 C 156.496094 133.277344 154.578125 134.917969 154.578125 137.109375 L 154.578125 140.941406 C 154.578125 142.035156 154.03125 142.582031 152.9375 142.855469 C 150.472656 143.402344 148.285156 144.496094 146.097656 145.59375 C 145.277344 146.140625 144.179688 145.867188 143.632812 145.320312 C 143.632812 145.320312 140.898438 142.582031 140.898438 142.582031 C 140.078125 141.761719 139.253906 141.488281 138.160156 141.488281 C 137.066406 141.488281 135.972656 142.035156 134.878906 142.855469 L 131.867188 145.867188 C 131.867188 145.867188 131.59375 146.140625 131.59375 146.140625 C 130.226562 144.769531 130.226562 142.035156 131.867188 140.390625 L 134.878906 137.382812 C 135.699219 136.558594 137.066406 136.011719 138.160156 136.011719 C 139.253906 136.011719 140.078125 136.285156 140.898438 137.109375 C 140.898438 137.109375 143.632812 139.84375 143.632812 139.84375 C 144.179688 140.390625 145.277344 140.664062 146.097656 140.117188 C 148.285156 138.75 150.75 137.929688 152.9375 137.382812 C 153.757812 137.109375 154.578125 136.285156 154.578125 135.464844 L 154.578125 131.632812 C 154.578125 129.445312 156.496094 127.800781 158.957031 127.800781 L 163.335938 127.800781 C 165.796875 127.800781 167.714844 129.445312 167.714844 131.632812 L 167.714844 135.464844 C 167.714844 136.558594 168.261719 137.109375 169.355469 137.382812 C 171.816406 137.929688 174.28125 139.023438 176.195312 140.117188 C 177.015625 140.664062 178.113281 140.390625 178.660156 139.84375 L 181.394531 137.109375 C 184.679688 133.824219 188.234375 138.476562 190.425781 140.664062 C 192.066406 142.308594 192.339844 144.769531 190.699219 146.414062 Z M 190.699219 146.414062 " fill-opacity="0.4" fill-rule="nonzero"/><path fill="#0f423c" d="M 134.332031 178.984375 L 133.507812 179.804688 C 132.6875 178.164062 132.140625 176.796875 131.59375 174.878906 C 131.320312 174.058594 130.5 173.238281 129.679688 173.238281 L 125.847656 173.238281 C 123.660156 173.238281 122.015625 171.320312 122.015625 168.859375 L 122.015625 164.480469 C 122.015625 164.203125 122.015625 164.203125 122.015625 163.929688 C 122.289062 166.121094 123.933594 167.761719 125.847656 167.761719 L 129.679688 167.761719 C 130.5 167.761719 131.320312 168.308594 131.59375 169.40625 C 132.414062 171.867188 133.234375 174.332031 134.605469 176.246094 C 134.878906 177.34375 134.878906 178.164062 134.332031 178.984375 Z M 134.332031 178.984375 " fill-opacity="0.3" fill-rule="nonzero"/><path fill="#0f423c" d="M 200.277344 164.753906 L 200.277344 169.132812 C 200.277344 171.59375 198.632812 173.511719 196.445312 173.511719 L 192.613281 173.511719 C 191.792969 173.511719 190.699219 174.058594 190.699219 175.152344 C 190.152344 176.796875 189.605469 178.4375 188.78125 180.078125 L 187.960938 179.257812 C 187.140625 178.4375 187.140625 177.617188 187.6875 176.796875 C 188.78125 174.605469 189.878906 172.417969 190.425781 169.953125 C 190.699219 169.132812 191.519531 168.308594 192.339844 168.308594 L 196.171875 168.308594 C 198.085938 168.308594 199.726562 166.667969 200.003906 164.476562 C 200.277344 164.203125 200.277344 164.480469 200.277344 164.753906 Z M 200.277344 164.753906 " fill-opacity="0.3" fill-rule="nonzero"/><path fill="#0f423c" d="M 190.425781 192.945312 L 187.414062 196.230469 C 186.59375 197.050781 185.226562 197.597656 184.132812 197.597656 C 183.035156 197.597656 182.214844 197.324219 181.667969 196.503906 L 178.933594 193.765625 C 178.386719 193.21875 177.289062 192.945312 176.46875 193.492188 C 174.28125 194.859375 172.089844 195.679688 169.628906 196.230469 C 168.808594 196.503906 167.988281 197.324219 167.988281 198.144531 L 167.988281 201.976562 C 167.988281 204.167969 166.070312 205.808594 163.609375 205.808594 L 159.230469 205.808594 C 156.769531 205.808594 154.851562 204.167969 154.851562 201.976562 L 154.851562 198.144531 C 154.851562 197.050781 154.304688 196.230469 153.210938 196.230469 C 151.84375 195.957031 150.199219 195.40625 148.832031 194.585938 C 147.464844 194.039062 145.277344 192.125 143.632812 193.492188 L 140.898438 196.230469 C 140.078125 197.050781 139.253906 197.324219 138.160156 197.324219 C 137.066406 197.324219 135.972656 196.777344 134.878906 195.957031 L 131.867188 192.945312 C 130.226562 191.300781 129.953125 188.566406 131.59375 187.195312 C 131.59375 187.46875 131.867188 187.46875 131.867188 187.46875 L 134.878906 190.480469 C 135.699219 191.300781 137.066406 191.847656 138.160156 191.847656 C 139.253906 191.847656 140.078125 191.574219 140.898438 190.753906 L 143.632812 188.015625 C 145.277344 186.375 147.191406 188.292969 148.832031 189.113281 C 150.199219 189.660156 151.84375 190.207031 153.210938 190.753906 C 154.03125 191.027344 154.851562 191.847656 154.851562 192.671875 L 154.851562 196.503906 C 154.851562 198.691406 156.769531 200.335938 159.230469 200.335938 L 163.609375 200.335938 C 166.070312 200.335938 167.988281 198.691406 167.988281 196.503906 L 167.988281 192.671875 C 167.988281 191.574219 168.535156 190.753906 169.628906 190.753906 C 172.089844 189.933594 174.554688 189.113281 176.46875 188.015625 C 177.289062 187.46875 178.386719 187.742188 178.933594 188.292969 L 181.667969 191.027344 C 182.488281 191.847656 183.308594 192.125 184.132812 192.125 C 185.226562 192.125 186.320312 191.574219 187.414062 190.753906 L 190.425781 187.742188 C 190.425781 187.742188 190.699219 187.46875 190.699219 187.46875 C 192.339844 188.839844 192.066406 191.300781 190.425781 192.945312 Z M 190.425781 192.945312 " fill-opacity="0.3" fill-rule="nonzero"/><path fill="#a54b3f" d="M 317.9375 72.511719 C 317.9375 77.164062 314.105469 80.722656 309.730469 80.722656 C 305.078125 80.722656 301.519531 77.164062 301.519531 72.511719 C 301.519531 71.691406 301.792969 70.597656 302.066406 69.773438 C 303.160156 73.058594 306.171875 75.25 309.730469 75.25 C 313.285156 75.25 316.296875 73.058594 317.390625 69.773438 C 317.9375 70.597656 317.9375 71.417969 317.9375 72.511719 Z M 317.9375 72.511719 " fill-opacity="0.5" fill-rule="nonzero"/><path fill="#ad9359" d="M 305.078125 200.0625 C 305.078125 203.070312 302.613281 205.535156 299.605469 205.535156 C 296.59375 205.535156 294.132812 203.070312 294.132812 200.0625 C 294.132812 198.964844 294.40625 198.144531 294.953125 197.324219 C 295.773438 198.964844 297.6875 200.0625 299.605469 200.0625 C 301.519531 200.0625 303.433594 198.964844 304.257812 197.324219 C 304.804688 198.144531 305.078125 198.964844 305.078125 200.0625 Z M 305.078125 200.0625 " fill-opacity="0.45" fill-rule="nonzero"/></svg>