<svg xmlns="http://www.w3.org/2000/svg" xmlns:xlink="http://www.w3.org/1999/xlink" width="500" zoomAndPan="magnify" viewBox="0 0 375 374.999991" height="500" preserveAspectRatio="xMidYMid meet" version="1.0"><defs><clipPath id="cf0bb839b0"><path d="M 3.351562 32.480469 L 371.601562 32.480469 L 371.601562 342.230469 L 3.351562 342.230469 Z M 3.351562 32.480469 " clip-rule="nonzero"/></clipPath></defs><path fill="#ffa300" d="M 301.03125 76.320312 L 190.160156 76.320312 L 190.160156 33.574219 C 232.839844 33.574219 271.738281 49.761719 301.03125 76.320312 Z M 353.210938 290.386719 L 353.210938 89.679688 C 353.210938 82.328125 347.25 76.371094 339.894531 76.371094 L 35.0625 76.371094 C 27.707031 76.371094 21.742188 82.328125 21.742188 89.679688 L 21.742188 290.386719 L 4.441406 290.386719 C 4.441406 300.390625 12.554688 308.492188 22.5625 308.492188 L 352.394531 308.492188 C 362.402344 308.492188 370.515625 300.386719 370.515625 290.386719 Z M 353.210938 290.386719 " fill-opacity="1" fill-rule="nonzero"/><path fill="#fff3e1" d="M 340.960938 91.097656 L 340.960938 261.527344 L 34.003906 261.527344 L 34.003906 99.34375 L 195.253906 99.34375 C 197.472656 99.34375 199.269531 97.496094 199.269531 95.222656 C 199.269531 94.082031 199.71875 93.050781 200.441406 92.304688 C 201.167969 91.5625 202.171875 91.105469 203.28125 91.105469 L 340.960938 91.105469 Z M 340.960938 91.097656 " fill-opacity="1" fill-rule="nonzero"/><path fill="#55d876" d="M 174.550781 153.449219 L 174.550781 240.710938 L 63.519531 240.710938 L 63.519531 217.296875 L 81.953125 217.296875 C 86.972656 217.296875 91.046875 213.226562 91.046875 208.207031 L 91.046875 188.789062 C 91.046875 183.773438 95.117188 179.703125 100.140625 179.703125 L 128.277344 179.703125 C 133.296875 179.703125 137.371094 175.636719 137.371094 170.617188 L 137.371094 153.4375 C 137.371094 148.417969 141.445312 144.351562 146.464844 144.351562 L 165.464844 144.351562 C 170.480469 144.363281 174.550781 148.433594 174.550781 153.449219 Z M 212.40625 240.710938 L 235.941406 240.710938 L 235.941406 177.511719 L 212.40625 177.511719 Z M 247.867188 240.710938 L 271.402344 240.710938 L 271.402344 160.8125 L 247.867188 160.8125 Z M 283.332031 135.878906 L 283.332031 240.710938 L 306.867188 240.710938 L 306.867188 135.878906 Z M 283.332031 135.878906 " fill-opacity="1" fill-rule="nonzero"/><path fill="#f93262" d="M 190.160156 76.371094 L 100.015625 76.371094 C 124.402344 58.84375 155.167969 48.503906 190.160156 48.503906 Z M 94.972656 308.492188 C 120.140625 328.898438 152.210938 341.125 187.144531 341.125 C 222.078125 341.125 254.148438 328.898438 279.316406 308.492188 Z M 174.550781 167.683594 L 164.914062 167.683594 C 162.746094 167.683594 160.984375 169.445312 160.984375 171.609375 L 160.984375 195.675781 C 160.984375 200.902344 156.746094 205.140625 151.515625 205.140625 L 114.691406 205.140625 C 109.457031 205.140625 105.21875 209.375 105.21875 214.601562 L 105.21875 221.792969 C 105.21875 227.019531 100.980469 231.253906 95.75 231.253906 L 63.519531 231.253906 L 63.519531 240.71875 L 174.542969 241.128906 L 174.542969 167.683594 Z M 174.550781 167.683594 " fill-opacity="1" fill-rule="nonzero"/><g clip-path="url(#cf0bb839b0)"><path fill="#000000" d="M 342.046875 90.011719 L 203.289062 90.011719 C 201.917969 90.011719 200.636719 90.554688 199.671875 91.546875 C 198.71875 92.53125 198.1875 93.835938 198.1875 95.222656 C 198.1875 96.898438 196.875 98.257812 195.261719 98.257812 L 32.917969 98.257812 L 32.917969 262.613281 L 342.046875 262.613281 Z M 339.871094 260.441406 L 35.089844 260.441406 L 35.089844 100.429688 L 195.253906 100.429688 C 198.066406 100.429688 200.355469 98.089844 200.355469 95.222656 C 200.355469 94.40625 200.667969 93.640625 201.222656 93.058594 C 201.773438 92.496094 202.507812 92.183594 203.289062 92.183594 L 339.871094 92.183594 Z M 354.300781 289.300781 L 354.300781 89.679688 C 354.300781 81.742188 347.835938 75.285156 339.894531 75.285156 L 301.480469 75.285156 C 270.902344 47.632812 231.703125 32.488281 190.160156 32.488281 L 189.074219 32.488281 L 189.074219 47.429688 C 155.746094 47.640625 124.792969 57.386719 99.691406 75.292969 L 35.0625 75.292969 C 27.121094 75.292969 20.65625 81.75 20.65625 89.6875 L 20.65625 289.300781 L 3.351562 289.300781 L 3.351562 290.386719 C 3.351562 300.972656 11.96875 309.582031 22.5625 309.582031 L 94.71875 309.582031 C 120.03125 329.976562 152.175781 342.210938 187.144531 342.210938 C 222.113281 342.210938 254.257812 329.976562 279.570312 309.582031 L 352.394531 309.582031 C 362.988281 309.582031 371.601562 300.972656 371.601562 290.386719 L 371.601562 289.300781 Z M 130.726562 291.472656 L 244.230469 291.472656 L 244.230469 291.660156 C 244.230469 294.28125 242.101562 296.410156 239.476562 296.410156 L 135.480469 296.410156 C 132.855469 296.410156 130.726562 294.28125 130.726562 291.660156 Z M 191.246094 34.660156 C 231.027344 34.914062 268.59375 49.25 298.234375 75.285156 L 191.246094 75.285156 Z M 189.074219 49.597656 L 189.074219 75.292969 L 103.699219 75.292969 C 127.457031 59.160156 156.71875 49.800781 189.074219 49.597656 Z M 35.0625 77.457031 L 339.902344 77.457031 C 346.648438 77.457031 352.132812 82.9375 352.132812 89.679688 L 352.132812 280.480469 L 22.832031 280.480469 L 22.832031 89.679688 C 22.832031 82.9375 28.316406 77.457031 35.0625 77.457031 Z M 187.152344 340.039062 C 153.675781 340.039062 122.8125 328.660156 98.210938 309.582031 L 276.097656 309.582031 C 251.5 328.664062 220.628906 340.039062 187.152344 340.039062 Z M 352.394531 307.40625 L 22.5625 307.40625 C 13.535156 307.40625 6.121094 300.347656 5.554688 291.472656 L 128.546875 291.472656 L 128.546875 291.660156 C 128.546875 295.476562 131.652344 298.582031 135.472656 298.582031 L 239.476562 298.582031 C 243.296875 298.582031 246.402344 295.476562 246.402344 291.660156 L 246.402344 291.472656 L 369.394531 291.472656 C 368.835938 300.355469 361.421875 307.40625 352.394531 307.40625 Z M 196.824219 239.625 L 196.824219 127.980469 L 194.652344 127.980469 L 194.652344 241.796875 L 325.074219 241.796875 L 325.074219 239.625 L 302.96875 239.625 L 302.96875 134.792969 L 277.257812 134.792969 L 277.257812 239.625 L 267.503906 239.625 L 267.503906 159.726562 L 241.796875 159.726562 L 241.796875 239.625 L 232.042969 239.625 L 232.042969 176.425781 L 206.332031 176.425781 L 206.332031 239.625 Z M 279.425781 136.964844 L 300.785156 136.964844 L 300.785156 239.625 L 279.425781 239.625 Z M 243.96875 161.898438 L 265.332031 161.898438 L 265.332031 239.625 L 243.96875 239.625 Z M 208.507812 178.597656 L 229.867188 178.597656 L 229.867188 239.625 L 208.507812 239.625 Z M 64.605469 239.625 L 174.542969 239.625 L 174.542969 241.796875 L 62.429688 241.796875 L 62.429688 127.980469 L 64.605469 127.980469 Z M 307.671875 114.085938 C 311.648438 114.085938 314.878906 110.855469 314.878906 106.882812 C 314.878906 102.90625 311.648438 99.675781 307.671875 99.675781 C 303.691406 99.675781 300.460938 102.90625 300.460938 106.882812 C 300.460938 110.855469 303.691406 114.085938 307.671875 114.085938 Z M 307.671875 101.847656 C 310.445312 101.847656 312.707031 104.109375 312.707031 106.882812 C 312.707031 109.652344 310.445312 111.914062 307.671875 111.914062 C 304.894531 111.914062 302.632812 109.652344 302.632812 106.882812 C 302.632812 104.109375 304.886719 101.847656 307.671875 101.847656 Z M 332.359375 99.648438 L 317.910156 99.648438 L 317.910156 114.085938 L 332.359375 114.085938 Z M 323.597656 106.867188 L 320.082031 110.378906 L 320.082031 103.355469 Z M 321.621094 101.820312 L 328.648438 101.820312 L 325.132812 105.332031 Z M 325.132812 108.402344 L 328.648438 111.914062 L 321.621094 111.914062 Z M 326.667969 106.867188 L 330.183594 103.355469 L 330.183594 110.378906 Z M 326.667969 106.867188 " fill-opacity="1" fill-rule="nonzero"/></g></svg>