<svg xmlns="http://www.w3.org/2000/svg" xmlns:xlink="http://www.w3.org/1999/xlink" width="500" zoomAndPan="magnify" viewBox="0 0 375 374.999991" height="500" preserveAspectRatio="xMidYMid meet" version="1.0"><defs><clipPath id="6d88c9a330"><path d="M 213 83 L 371.589844 83 L 371.589844 253 L 213 253 Z M 213 83 " clip-rule="nonzero"/></clipPath></defs><path fill="#000000" d="M 90.847656 122.191406 C 90.417969 122.191406 89.992188 122.152344 89.574219 122.066406 C 89.152344 121.984375 88.746094 121.859375 88.347656 121.695312 C 87.953125 121.53125 87.574219 121.332031 87.21875 121.09375 C 86.863281 120.855469 86.53125 120.582031 86.230469 120.28125 C 85.925781 119.976562 85.65625 119.648438 85.417969 119.289062 C 85.179688 118.933594 84.976562 118.558594 84.8125 118.160156 C 84.648438 117.765625 84.527344 117.355469 84.441406 116.9375 C 84.359375 116.515625 84.316406 116.089844 84.316406 115.664062 L 84.316406 89.542969 C 84.316406 88.90625 84.347656 88.277344 84.410156 87.644531 C 84.46875 87.015625 84.5625 86.386719 84.683594 85.765625 C 84.804688 85.144531 84.957031 84.53125 85.136719 83.921875 C 85.320312 83.316406 85.53125 82.71875 85.769531 82.132812 C 86.007812 81.546875 86.277344 80.972656 86.570312 80.414062 C 86.867188 79.851562 87.1875 79.308594 87.535156 78.777344 C 87.882812 78.25 88.257812 77.738281 88.652344 77.242188 C 89.050781 76.75 89.472656 76.277344 89.914062 75.824219 C 90.359375 75.371094 90.824219 74.941406 91.308594 74.535156 C 91.792969 74.128906 92.296875 73.746094 92.820312 73.386719 C 93.34375 73.027344 93.878906 72.695312 94.433594 72.390625 C 94.988281 72.082031 95.558594 71.804688 96.140625 71.550781 C 96.722656 71.300781 97.3125 71.078125 97.917969 70.886719 C 98.519531 70.691406 99.128906 70.527344 99.75 70.394531 C 100.367188 70.257812 100.992188 70.152344 101.621094 70.082031 C 102.25 70.007812 102.882812 69.964844 103.515625 69.949219 C 103.074219 69.496094 102.652344 69.023438 102.253906 68.53125 C 101.855469 68.039062 101.484375 67.527344 101.136719 67 C 100.789062 66.46875 100.464844 65.925781 100.171875 65.363281 C 99.875 64.804688 99.609375 64.230469 99.371094 63.644531 C 99.128906 63.058594 98.917969 62.460938 98.738281 61.851562 C 98.554688 61.246094 98.40625 60.632812 98.28125 60.011719 C 98.160156 59.390625 98.070312 58.761719 98.007812 58.132812 C 97.945312 57.503906 97.914062 56.871094 97.914062 56.238281 C 97.914062 55.601562 97.945312 54.972656 98.007812 54.339844 C 98.070312 53.710938 98.160156 53.085938 98.28125 52.460938 C 98.40625 51.839844 98.554688 51.226562 98.738281 50.621094 C 98.917969 50.011719 99.128906 49.417969 99.371094 48.832031 C 99.609375 48.242188 99.875 47.671875 100.171875 47.109375 C 100.464844 46.550781 100.789062 46.003906 101.136719 45.476562 C 101.484375 44.945312 101.855469 44.433594 102.253906 43.941406 C 102.652344 43.449219 103.074219 42.976562 103.515625 42.523438 L 122.191406 24.238281 C 124.070312 22.429688 126.21875 21.035156 128.632812 20.050781 C 131.046875 19.070312 133.558594 18.570312 136.167969 18.558594 C 138.671875 18.519531 141.085938 18.957031 143.417969 19.871094 C 145.746094 20.789062 147.8125 22.113281 149.621094 23.847656 C 149.632812 23.214844 149.675781 22.582031 149.75 21.953125 C 149.824219 21.324219 149.929688 20.699219 150.0625 20.078125 C 150.195312 19.460938 150.359375 18.851562 150.554688 18.246094 C 150.75 17.644531 150.972656 17.050781 151.222656 16.46875 C 151.472656 15.886719 151.753906 15.320312 152.058594 14.765625 C 152.363281 14.210938 152.695312 13.671875 153.054688 13.148438 C 153.414062 12.628906 153.796875 12.125 154.203125 11.640625 C 154.613281 11.152344 155.042969 10.691406 155.496094 10.246094 C 155.945312 9.800781 156.417969 9.382812 156.914062 8.984375 C 157.40625 8.585938 157.917969 8.214844 158.445312 7.867188 C 158.976562 7.519531 159.523438 7.195312 160.082031 6.902344 C 160.644531 6.605469 161.214844 6.339844 161.804688 6.101562 C 162.390625 5.859375 162.984375 5.648438 163.59375 5.46875 C 164.199219 5.289062 164.816406 5.136719 165.4375 5.011719 C 166.058594 4.890625 166.683594 4.800781 167.316406 4.738281 C 167.945312 4.675781 168.578125 4.648438 169.210938 4.648438 L 195.332031 4.648438 C 195.964844 4.648438 196.597656 4.675781 197.226562 4.738281 C 197.859375 4.800781 198.484375 4.890625 199.105469 5.011719 C 199.726562 5.136719 200.34375 5.289062 200.949219 5.46875 C 201.554688 5.648438 202.152344 5.859375 202.738281 6.101562 C 203.324219 6.339844 203.898438 6.605469 204.460938 6.902344 C 205.019531 7.195312 205.566406 7.519531 206.09375 7.867188 C 206.625 8.214844 207.136719 8.585938 207.628906 8.984375 C 208.121094 9.382812 208.59375 9.800781 209.046875 10.246094 C 209.5 10.691406 209.929688 11.152344 210.335938 11.640625 C 210.746094 12.125 211.128906 12.628906 211.488281 13.148438 C 211.84375 13.671875 212.179688 14.210938 212.484375 14.765625 C 212.789062 15.320312 213.070312 15.886719 213.320312 16.46875 C 213.570312 17.050781 213.792969 17.644531 213.988281 18.246094 C 214.183594 18.851562 214.347656 19.460938 214.480469 20.078125 C 214.613281 20.699219 214.71875 21.324219 214.792969 21.953125 C 214.867188 22.582031 214.910156 23.214844 214.921875 23.847656 C 216.734375 22.117188 218.804688 20.78125 221.128906 19.84375 C 223.453125 18.910156 225.867188 18.4375 228.375 18.425781 C 229.675781 18.421875 230.960938 18.546875 232.234375 18.800781 C 233.511719 19.054688 234.746094 19.429688 235.945312 19.929688 C 237.144531 20.425781 238.285156 21.039062 239.363281 21.765625 C 240.441406 22.488281 241.4375 23.316406 242.351562 24.238281 L 260.636719 42.523438 C 261.089844 42.976562 261.523438 43.453125 261.929688 43.949219 C 262.339844 44.445312 262.722656 44.960938 263.082031 45.496094 C 263.4375 46.027344 263.769531 46.578125 264.074219 47.144531 C 264.378906 47.710938 264.652344 48.292969 264.898438 48.886719 C 265.144531 49.480469 265.363281 50.085938 265.550781 50.699219 C 265.738281 51.316406 265.894531 51.9375 266.019531 52.570312 C 266.144531 53.199219 266.238281 53.835938 266.300781 54.476562 C 266.367188 55.117188 266.398438 55.757812 266.398438 56.398438 C 266.398438 57.042969 266.367188 57.683594 266.300781 58.324219 C 266.238281 58.964844 266.144531 59.597656 266.019531 60.230469 C 265.894531 60.859375 265.738281 61.484375 265.550781 62.097656 C 265.363281 62.714844 265.144531 63.320312 264.898438 63.914062 C 264.652344 64.507812 264.378906 65.085938 264.074219 65.652344 C 263.769531 66.21875 263.4375 66.769531 263.082031 67.304688 C 262.722656 67.839844 262.339844 68.355469 261.929688 68.851562 C 261.523438 69.347656 261.089844 69.824219 260.636719 70.277344 L 249.925781 81.117188 C 249.289062 81.535156 248.597656 81.832031 247.855469 82.007812 C 247.113281 82.183594 246.363281 82.226562 245.605469 82.140625 C 244.851562 82.054688 244.128906 81.84375 243.445312 81.503906 C 242.765625 81.164062 242.160156 80.722656 241.632812 80.171875 C 241.105469 79.621094 240.6875 78.996094 240.378906 78.300781 C 240.070312 77.601562 239.886719 76.875 239.832031 76.113281 C 239.78125 75.351562 239.855469 74.605469 240.066406 73.871094 C 240.273438 73.140625 240.597656 72.464844 241.042969 71.84375 L 251.820312 61.003906 C 252.121094 60.699219 252.390625 60.371094 252.625 60.015625 C 252.863281 59.660156 253.0625 59.285156 253.222656 58.890625 C 253.386719 58.496094 253.511719 58.089844 253.59375 57.667969 C 253.675781 57.25 253.71875 56.828125 253.71875 56.398438 C 253.71875 55.972656 253.675781 55.550781 253.59375 55.128906 C 253.511719 54.710938 253.386719 54.304688 253.222656 53.910156 C 253.0625 53.515625 252.863281 53.140625 252.625 52.785156 C 252.390625 52.429688 252.121094 52.097656 251.820312 51.796875 L 233.078125 33.378906 C 232.460938 32.769531 231.75 32.300781 230.949219 31.972656 C 230.144531 31.644531 229.308594 31.480469 228.441406 31.488281 C 227.589844 31.480469 226.765625 31.636719 225.976562 31.953125 C 225.183594 32.269531 224.484375 32.722656 223.871094 33.316406 L 213.027344 44.15625 C 212.570312 44.609375 212.054688 44.984375 211.484375 45.285156 C 210.914062 45.585938 210.3125 45.796875 209.675781 45.917969 C 209.042969 46.042969 208.40625 46.070312 207.765625 46.003906 C 207.125 45.933594 206.503906 45.777344 205.910156 45.527344 C 205.316406 45.28125 204.765625 44.957031 204.265625 44.546875 C 203.765625 44.140625 203.335938 43.671875 202.976562 43.136719 C 202.617188 42.601562 202.339844 42.027344 202.152344 41.410156 C 201.960938 40.792969 201.867188 40.164062 201.863281 39.519531 L 201.863281 24.238281 C 201.863281 23.808594 201.820312 23.382812 201.738281 22.964844 C 201.652344 22.542969 201.527344 22.136719 201.363281 21.738281 C 201.199219 21.34375 201 20.964844 200.761719 20.609375 C 200.523438 20.253906 200.253906 19.921875 199.949219 19.621094 C 199.644531 19.316406 199.316406 19.046875 198.960938 18.808594 C 198.601562 18.570312 198.226562 18.367188 197.832031 18.203125 C 197.433594 18.039062 197.027344 17.917969 196.605469 17.832031 C 196.183594 17.75 195.761719 17.707031 195.332031 17.707031 L 169.210938 17.707031 C 168.78125 17.707031 168.355469 17.75 167.9375 17.832031 C 167.515625 17.917969 167.109375 18.039062 166.710938 18.203125 C 166.316406 18.367188 165.9375 18.570312 165.582031 18.808594 C 165.226562 19.046875 164.894531 19.316406 164.59375 19.621094 C 164.289062 19.921875 164.019531 20.253906 163.78125 20.609375 C 163.542969 20.964844 163.339844 21.34375 163.175781 21.738281 C 163.011719 22.136719 162.890625 22.542969 162.804688 22.964844 C 162.722656 23.382812 162.679688 23.808594 162.679688 24.238281 L 162.679688 39.519531 C 162.675781 40.164062 162.582031 40.792969 162.390625 41.410156 C 162.199219 42.027344 161.925781 42.601562 161.566406 43.136719 C 161.207031 43.671875 160.773438 44.140625 160.277344 44.546875 C 159.777344 44.957031 159.226562 45.28125 158.632812 45.527344 C 158.035156 45.777344 157.417969 45.933594 156.777344 46.003906 C 156.136719 46.070312 155.5 46.042969 154.863281 45.917969 C 154.230469 45.796875 153.628906 45.585938 153.058594 45.285156 C 152.488281 44.984375 151.972656 44.609375 151.511719 44.15625 L 140.671875 33.378906 C 140.066406 32.777344 139.367188 32.3125 138.574219 31.984375 C 137.78125 31.65625 136.957031 31.492188 136.101562 31.488281 C 135.234375 31.480469 134.398438 31.644531 133.59375 31.972656 C 132.792969 32.300781 132.082031 32.769531 131.464844 33.378906 L 113.050781 51.796875 C 112.4375 52.414062 111.96875 53.121094 111.640625 53.925781 C 111.3125 54.730469 111.152344 55.566406 111.15625 56.433594 C 111.152344 57.285156 111.308594 58.105469 111.625 58.898438 C 111.941406 59.6875 112.394531 60.390625 112.984375 61.003906 L 123.824219 71.84375 C 124.277344 72.304688 124.65625 72.816406 124.957031 73.390625 C 125.257812 73.960938 125.46875 74.5625 125.589844 75.195312 C 125.710938 75.828125 125.738281 76.464844 125.671875 77.109375 C 125.605469 77.75 125.445312 78.367188 125.195312 78.960938 C 124.953125 79.558594 124.625 80.105469 124.21875 80.605469 C 123.8125 81.105469 123.339844 81.535156 122.804688 81.894531 C 122.269531 82.257812 121.695312 82.53125 121.078125 82.722656 C 120.464844 82.910156 119.832031 83.007812 119.1875 83.011719 L 103.90625 83.011719 C 103.480469 83.011719 103.054688 83.050781 102.632812 83.136719 C 102.214844 83.21875 101.804688 83.34375 101.410156 83.507812 C 101.011719 83.671875 100.636719 83.875 100.28125 84.113281 C 99.921875 84.347656 99.59375 84.621094 99.289062 84.921875 C 98.988281 85.226562 98.714844 85.554688 98.476562 85.914062 C 98.238281 86.269531 98.039062 86.644531 97.875 87.042969 C 97.710938 87.4375 97.585938 87.847656 97.503906 88.265625 C 97.417969 88.6875 97.378906 89.113281 97.378906 89.542969 L 97.378906 115.664062 C 97.378906 116.089844 97.335938 116.515625 97.253906 116.9375 C 97.167969 117.355469 97.042969 117.765625 96.878906 118.160156 C 96.714844 118.558594 96.515625 118.933594 96.277344 119.289062 C 96.039062 119.648438 95.769531 119.976562 95.464844 120.28125 C 95.160156 120.582031 94.832031 120.855469 94.476562 121.09375 C 94.117188 121.332031 93.742188 121.53125 93.347656 121.695312 C 92.949219 121.859375 92.542969 121.984375 92.121094 122.066406 C 91.699219 122.152344 91.277344 122.191406 90.847656 122.191406 Z M 90.847656 122.191406 " fill-opacity="1" fill-rule="nonzero"/><path fill="#000000" d="M 159.675781 122.191406 C 159.109375 122.191406 158.550781 122.121094 158.003906 121.976562 C 157.457031 121.828125 156.9375 121.617188 156.445312 121.335938 C 155.953125 121.054688 155.503906 120.71875 155.101562 120.320312 C 154.695312 119.921875 154.347656 119.480469 154.058594 118.992188 C 153.34375 117.757812 152.710938 116.480469 152.160156 115.164062 C 151.613281 113.847656 151.152344 112.496094 150.777344 111.121094 C 150.40625 109.742188 150.125 108.34375 149.9375 106.929688 C 149.746094 105.515625 149.652344 104.09375 149.648438 102.664062 C 149.644531 101.238281 149.734375 99.816406 149.917969 98.398438 C 150.101562 96.984375 150.378906 95.585938 150.746094 94.207031 C 151.113281 92.828125 151.570312 91.476562 152.113281 90.15625 C 152.65625 88.835938 153.285156 87.558594 153.996094 86.320312 C 154.707031 85.082031 155.5 83.898438 156.367188 82.761719 C 157.234375 81.628906 158.171875 80.558594 159.179688 79.546875 C 160.1875 78.535156 161.257812 77.59375 162.386719 76.722656 C 163.519531 75.851562 164.703125 75.058594 165.9375 74.34375 C 167.175781 73.628906 168.453125 72.996094 169.769531 72.449219 C 171.089844 71.902344 172.4375 71.441406 173.816406 71.070312 C 175.195312 70.699219 176.589844 70.421875 178.007812 70.234375 C 179.421875 70.046875 180.84375 69.953125 182.269531 69.949219 C 184.078125 69.949219 185.871094 70.097656 187.652344 70.394531 C 189.433594 70.691406 191.179688 71.136719 192.886719 71.722656 C 194.59375 72.308594 196.242188 73.03125 197.832031 73.890625 C 199.417969 74.753906 200.925781 75.738281 202.351562 76.847656 C 203.773438 77.957031 205.097656 79.179688 206.320312 80.507812 C 207.542969 81.839844 208.648438 83.261719 209.632812 84.773438 C 210.617188 86.285156 211.472656 87.871094 212.195312 89.523438 C 212.921875 91.179688 213.503906 92.882812 213.941406 94.636719 C 214.046875 95.050781 214.109375 95.472656 214.132812 95.902344 C 214.152344 96.328125 214.132812 96.753906 214.070312 97.179688 C 214.007812 97.601562 213.90625 98.015625 213.761719 98.421875 C 213.617188 98.824219 213.4375 99.210938 213.214844 99.578125 C 212.996094 99.949219 212.742188 100.289062 212.457031 100.609375 C 212.167969 100.925781 211.851562 101.214844 211.507812 101.46875 C 211.164062 101.726562 210.800781 101.945312 210.410156 102.128906 C 210.023438 102.3125 209.621094 102.457031 209.207031 102.5625 C 208.792969 102.667969 208.371094 102.730469 207.941406 102.753906 C 207.511719 102.777344 207.085938 102.753906 206.664062 102.695312 C 206.238281 102.632812 205.824219 102.527344 205.421875 102.386719 C 205.015625 102.242188 204.628906 102.058594 204.261719 101.839844 C 203.894531 101.621094 203.550781 101.367188 203.230469 101.082031 C 202.914062 100.792969 202.625 100.476562 202.371094 100.132812 C 202.113281 99.789062 201.894531 99.425781 201.710938 99.039062 C 201.523438 98.652344 201.378906 98.25 201.273438 97.835938 C 201.105469 97.15625 200.902344 96.488281 200.660156 95.828125 C 200.417969 95.171875 200.144531 94.527344 199.835938 93.902344 C 199.527344 93.273438 199.183594 92.664062 198.808594 92.070312 C 198.433594 91.480469 198.027344 90.910156 197.59375 90.363281 C 197.15625 89.816406 196.691406 89.292969 196.199219 88.792969 C 195.707031 88.296875 195.191406 87.824219 194.648438 87.382812 C 194.105469 86.9375 193.542969 86.527344 192.953125 86.144531 C 192.367188 85.761719 191.761719 85.414062 191.136719 85.097656 C 190.515625 84.777344 189.875 84.496094 189.21875 84.246094 C 188.566406 84 187.898438 83.785156 187.222656 83.609375 C 186.542969 83.429688 185.859375 83.289062 185.167969 83.1875 C 184.476562 83.082031 183.777344 83.015625 183.078125 82.988281 C 182.378906 82.957031 181.679688 82.964844 180.980469 83.011719 C 180.28125 83.058594 179.589844 83.140625 178.898438 83.261719 C 178.210938 83.378906 177.527344 83.539062 176.855469 83.730469 C 176.183594 83.925781 175.519531 84.152344 174.871094 84.417969 C 174.222656 84.679688 173.589844 84.980469 172.976562 85.3125 C 172.359375 85.644531 171.761719 86.007812 171.183594 86.402344 C 170.605469 86.796875 170.050781 87.222656 169.519531 87.679688 C 168.988281 88.136719 168.480469 88.617188 168.003906 89.128906 C 167.523438 89.636719 167.070312 90.171875 166.648438 90.730469 C 166.226562 91.285156 165.832031 91.867188 165.472656 92.464844 C 165.113281 93.066406 164.785156 93.683594 164.488281 94.320312 C 164.195312 94.953125 163.933594 95.601562 163.710938 96.265625 C 163.484375 96.929688 163.296875 97.601562 163.144531 98.285156 C 162.992188 98.96875 162.875 99.660156 162.796875 100.355469 C 162.71875 101.050781 162.675781 101.75 162.671875 102.449219 C 162.667969 103.148438 162.699219 103.847656 162.773438 104.542969 C 162.84375 105.242188 162.949219 105.929688 163.09375 106.617188 C 163.242188 107.300781 163.421875 107.976562 163.640625 108.640625 C 163.855469 109.308594 164.109375 109.960938 164.394531 110.597656 C 164.683594 111.238281 165.003906 111.859375 165.359375 112.460938 C 165.574219 112.832031 165.753906 113.222656 165.894531 113.628906 C 166.035156 114.035156 166.132812 114.449219 166.191406 114.875 C 166.25 115.300781 166.269531 115.726562 166.242188 116.15625 C 166.214844 116.585938 166.148438 117.007812 166.039062 117.421875 C 165.929688 117.839844 165.78125 118.238281 165.59375 118.625 C 165.40625 119.011719 165.179688 119.375 164.921875 119.71875 C 164.660156 120.058594 164.367188 120.375 164.046875 120.660156 C 163.726562 120.941406 163.378906 121.191406 163.007812 121.410156 C 161.96875 121.972656 160.859375 122.234375 159.675781 122.191406 Z M 159.675781 122.191406 " fill-opacity="1" fill-rule="nonzero"/><g clip-path="url(#6d88c9a330)"><path fill="#000000" d="M 297.921875 252.796875 L 275.589844 252.796875 C 275.007812 252.796875 274.429688 252.769531 273.851562 252.714844 C 273.273438 252.65625 272.703125 252.570312 272.132812 252.457031 C 271.5625 252.347656 271 252.207031 270.445312 252.039062 C 269.890625 251.867188 269.34375 251.675781 268.808594 251.453125 C 268.269531 251.230469 267.746094 250.984375 267.234375 250.710938 C 266.722656 250.4375 266.222656 250.140625 265.742188 249.820312 C 265.257812 249.496094 264.792969 249.152344 264.34375 248.785156 C 263.894531 248.417969 263.464844 248.027344 263.050781 247.617188 C 262.640625 247.210938 262.25 246.78125 261.882812 246.332031 C 261.511719 245.886719 261.167969 245.421875 260.84375 244.9375 C 260.519531 244.457031 260.21875 243.960938 259.945312 243.449219 C 259.671875 242.9375 259.421875 242.414062 259.199219 241.878906 C 258.972656 241.34375 258.777344 240.796875 258.605469 240.242188 C 258.4375 239.6875 258.292969 239.125 258.179688 238.558594 C 258.0625 237.988281 257.976562 237.414062 257.917969 236.839844 C 257.859375 236.261719 257.828125 235.683594 257.828125 235.101562 L 257.828125 222.039062 C 257.828125 221.613281 257.867188 221.1875 257.953125 220.765625 C 258.035156 220.347656 258.160156 219.9375 258.324219 219.542969 C 258.488281 219.144531 258.6875 218.769531 258.925781 218.414062 C 259.164062 218.054688 259.4375 217.726562 259.738281 217.421875 C 260.042969 217.121094 260.371094 216.847656 260.730469 216.609375 C 261.085938 216.371094 261.460938 216.171875 261.859375 216.007812 C 262.253906 215.84375 262.664062 215.71875 263.082031 215.636719 C 263.503906 215.550781 263.929688 215.511719 264.355469 215.511719 C 264.785156 215.511719 265.210938 215.550781 265.632812 215.636719 C 266.050781 215.71875 266.460938 215.84375 266.855469 216.007812 C 267.253906 216.171875 267.628906 216.371094 267.984375 216.609375 C 268.339844 216.847656 268.671875 217.121094 268.976562 217.421875 C 269.277344 217.726562 269.546875 218.054688 269.785156 218.414062 C 270.023438 218.769531 270.226562 219.144531 270.390625 219.542969 C 270.554688 219.9375 270.679688 220.347656 270.761719 220.765625 C 270.84375 221.1875 270.886719 221.613281 270.886719 222.039062 L 270.886719 235.101562 C 270.886719 235.410156 270.917969 235.710938 270.976562 236.015625 C 271.039062 236.316406 271.128906 236.609375 271.246094 236.890625 C 271.363281 237.175781 271.511719 237.441406 271.683594 237.699219 C 271.855469 237.953125 272.050781 238.1875 272.269531 238.402344 C 272.488281 238.617188 272.726562 238.8125 272.980469 238.980469 C 273.238281 239.148438 273.511719 239.289062 273.792969 239.402344 C 274.078125 239.519531 274.375 239.605469 274.675781 239.660156 C 274.976562 239.714844 275.28125 239.742188 275.589844 239.738281 L 297.921875 239.738281 C 298.230469 239.742188 298.535156 239.714844 298.835938 239.660156 C 299.136719 239.605469 299.433594 239.519531 299.71875 239.402344 C 300.003906 239.289062 300.273438 239.148438 300.53125 238.980469 C 300.785156 238.8125 301.023438 238.617188 301.242188 238.402344 C 301.460938 238.1875 301.65625 237.953125 301.828125 237.699219 C 302 237.441406 302.148438 237.175781 302.265625 236.890625 C 302.382812 236.609375 302.472656 236.316406 302.535156 236.015625 C 302.59375 235.710938 302.625 235.410156 302.625 235.101562 L 302.625 222.039062 C 302.628906 221.394531 302.722656 220.765625 302.914062 220.148438 C 303.105469 219.535156 303.378906 218.957031 303.738281 218.425781 C 304.101562 217.890625 304.53125 217.417969 305.03125 217.011719 C 305.527344 216.605469 306.078125 216.277344 306.671875 216.03125 C 307.269531 215.78125 307.886719 215.625 308.527344 215.558594 C 309.167969 215.492188 309.808594 215.519531 310.441406 215.640625 C 311.074219 215.761719 311.675781 215.972656 312.246094 216.273438 C 312.816406 216.574219 313.332031 216.953125 313.792969 217.402344 L 323.0625 226.675781 C 323.28125 226.886719 323.515625 227.074219 323.769531 227.238281 C 324.023438 227.402344 324.289062 227.539062 324.570312 227.652344 C 324.847656 227.765625 325.136719 227.851562 325.433594 227.910156 C 325.730469 227.96875 326.027344 227.996094 326.328125 227.996094 C 326.632812 227.996094 326.929688 227.96875 327.226562 227.910156 C 327.523438 227.851562 327.808594 227.765625 328.089844 227.652344 C 328.371094 227.539062 328.636719 227.402344 328.890625 227.238281 C 329.140625 227.074219 329.378906 226.886719 329.59375 226.675781 L 345.527344 210.742188 C 345.734375 210.523438 345.917969 210.289062 346.078125 210.035156 C 346.242188 209.78125 346.375 209.515625 346.488281 209.234375 C 346.597656 208.953125 346.679688 208.667969 346.738281 208.371094 C 346.792969 208.078125 346.824219 207.777344 346.824219 207.476562 C 346.824219 207.175781 346.792969 206.878906 346.738281 206.585938 C 346.679688 206.289062 346.597656 206 346.488281 205.722656 C 346.375 205.441406 346.242188 205.175781 346.078125 204.921875 C 345.917969 204.667969 345.734375 204.433594 345.527344 204.214844 L 336.253906 195.003906 C 335.800781 194.546875 335.425781 194.03125 335.125 193.460938 C 334.824219 192.890625 334.613281 192.289062 334.492188 191.652344 C 334.371094 191.019531 334.34375 190.382812 334.410156 189.742188 C 334.476562 189.101562 334.632812 188.480469 334.882812 187.886719 C 335.128906 187.292969 335.457031 186.742188 335.863281 186.242188 C 336.269531 185.742188 336.742188 185.3125 337.273438 184.953125 C 337.808594 184.59375 338.386719 184.316406 339 184.128906 C 339.617188 183.9375 340.246094 183.839844 340.890625 183.839844 L 353.953125 183.839844 C 354.261719 183.839844 354.5625 183.808594 354.867188 183.746094 C 355.167969 183.6875 355.457031 183.597656 355.742188 183.480469 C 356.027344 183.359375 356.292969 183.214844 356.550781 183.042969 C 356.804688 182.871094 357.039062 182.675781 357.253906 182.457031 C 357.46875 182.238281 357.664062 182 357.832031 181.742188 C 358 181.488281 358.140625 181.214844 358.253906 180.929688 C 358.371094 180.644531 358.457031 180.351562 358.511719 180.050781 C 358.566406 179.75 358.59375 179.445312 358.589844 179.136719 L 358.589844 156.738281 C 358.59375 156.429688 358.566406 156.125 358.511719 155.824219 C 358.457031 155.523438 358.371094 155.230469 358.253906 154.945312 C 358.140625 154.660156 358 154.386719 357.832031 154.128906 C 357.664062 153.875 357.46875 153.636719 357.253906 153.417969 C 357.039062 153.199219 356.804688 153.003906 356.550781 152.832031 C 356.292969 152.660156 356.027344 152.511719 355.742188 152.394531 C 355.457031 152.277344 355.167969 152.1875 354.867188 152.125 C 354.5625 152.066406 354.261719 152.035156 353.953125 152.035156 L 340.890625 152.035156 C 340.246094 152.03125 339.617188 151.9375 339 151.746094 C 338.386719 151.554688 337.808594 151.28125 337.273438 150.921875 C 336.742188 150.5625 336.269531 150.132812 335.863281 149.632812 C 335.457031 149.132812 335.128906 148.582031 334.882812 147.988281 C 334.632812 147.394531 334.476562 146.773438 334.410156 146.132812 C 334.34375 145.492188 334.371094 144.855469 334.492188 144.21875 C 334.613281 143.585938 334.824219 142.984375 335.125 142.414062 C 335.425781 141.84375 335.800781 141.328125 336.253906 140.871094 L 345.527344 131.597656 C 345.738281 131.378906 345.925781 131.144531 346.089844 130.890625 C 346.253906 130.636719 346.390625 130.371094 346.503906 130.089844 C 346.617188 129.8125 346.703125 129.523438 346.761719 129.226562 C 346.820312 128.933594 346.847656 128.632812 346.847656 128.332031 C 346.847656 128.03125 346.820312 127.730469 346.761719 127.433594 C 346.703125 127.136719 346.617188 126.851562 346.503906 126.570312 C 346.390625 126.289062 346.253906 126.023438 346.089844 125.769531 C 345.925781 125.519531 345.738281 125.28125 345.527344 125.066406 L 329.59375 109.132812 C 329.375 108.925781 329.140625 108.742188 328.886719 108.582031 C 328.632812 108.421875 328.363281 108.285156 328.085938 108.171875 C 327.804688 108.0625 327.519531 107.980469 327.222656 107.921875 C 326.929688 107.867188 326.628906 107.839844 326.328125 107.839844 C 326.027344 107.839844 325.730469 107.867188 325.4375 107.921875 C 325.140625 107.980469 324.851562 108.0625 324.574219 108.171875 C 324.292969 108.285156 324.027344 108.421875 323.773438 108.582031 C 323.519531 108.742188 323.285156 108.925781 323.0625 109.132812 L 313.855469 118.40625 C 313.398438 118.859375 312.882812 119.234375 312.3125 119.535156 C 311.742188 119.835938 311.140625 120.046875 310.503906 120.167969 C 309.871094 120.292969 309.234375 120.320312 308.59375 120.25 C 307.953125 120.183594 307.332031 120.027344 306.738281 119.777344 C 306.140625 119.53125 305.59375 119.207031 305.09375 118.796875 C 304.59375 118.390625 304.164062 117.921875 303.804688 117.386719 C 303.445312 116.851562 303.167969 116.277344 302.980469 115.660156 C 302.789062 115.042969 302.691406 114.414062 302.691406 113.769531 L 302.691406 100.707031 C 302.691406 100.402344 302.660156 100.097656 302.597656 99.796875 C 302.539062 99.492188 302.449219 99.203125 302.332031 98.917969 C 302.210938 98.636719 302.066406 98.367188 301.894531 98.113281 C 301.722656 97.855469 301.527344 97.621094 301.308594 97.40625 C 301.089844 97.191406 300.851562 97 300.59375 96.828125 C 300.339844 96.660156 300.066406 96.519531 299.78125 96.40625 C 299.496094 96.289062 299.203125 96.207031 298.902344 96.148438 C 298.601562 96.09375 298.296875 96.066406 297.988281 96.070312 L 275.589844 96.070312 C 275.28125 96.066406 274.976562 96.09375 274.675781 96.148438 C 274.375 96.207031 274.078125 96.289062 273.792969 96.40625 C 273.511719 96.519531 273.238281 96.660156 272.980469 96.828125 C 272.726562 97 272.488281 97.191406 272.269531 97.40625 C 272.050781 97.621094 271.855469 97.855469 271.683594 98.113281 C 271.511719 98.367188 271.363281 98.636719 271.246094 98.917969 C 271.128906 99.203125 271.039062 99.492188 270.976562 99.796875 C 270.917969 100.097656 270.886719 100.402344 270.886719 100.707031 L 270.886719 113.769531 C 270.882812 114.414062 270.789062 115.042969 270.597656 115.660156 C 270.40625 116.277344 270.132812 116.851562 269.773438 117.386719 C 269.414062 117.921875 268.980469 118.390625 268.484375 118.796875 C 267.984375 119.207031 267.433594 119.53125 266.839844 119.777344 C 266.242188 120.027344 265.625 120.183594 264.984375 120.25 C 264.34375 120.320312 263.707031 120.292969 263.070312 120.167969 C 262.4375 120.046875 261.835938 119.835938 261.265625 119.535156 C 260.695312 119.234375 260.179688 118.859375 259.71875 118.40625 L 250.449219 109.132812 C 250.230469 108.921875 249.996094 108.734375 249.742188 108.570312 C 249.488281 108.40625 249.222656 108.269531 248.941406 108.15625 C 248.664062 108.042969 248.375 107.957031 248.078125 107.898438 C 247.78125 107.84375 247.484375 107.8125 247.183594 107.8125 C 246.878906 107.8125 246.582031 107.84375 246.285156 107.898438 C 245.988281 107.957031 245.703125 108.042969 245.421875 108.15625 C 245.140625 108.269531 244.875 108.40625 244.621094 108.570312 C 244.371094 108.734375 244.132812 108.921875 243.917969 109.132812 L 227.984375 125.066406 C 227.777344 125.285156 227.59375 125.519531 227.433594 125.773438 C 227.273438 126.027344 227.136719 126.296875 227.023438 126.574219 C 226.914062 126.855469 226.832031 127.140625 226.773438 127.4375 C 226.71875 127.734375 226.691406 128.03125 226.691406 128.332031 C 226.691406 128.632812 226.71875 128.929688 226.773438 129.226562 C 226.832031 129.519531 226.914062 129.808594 227.023438 130.085938 C 227.136719 130.367188 227.273438 130.632812 227.433594 130.886719 C 227.59375 131.140625 227.777344 131.378906 227.984375 131.597656 L 237.257812 140.804688 C 237.5625 141.109375 237.835938 141.441406 238.078125 141.796875 C 238.316406 142.15625 238.523438 142.535156 238.6875 142.933594 C 238.855469 143.332031 238.980469 143.742188 239.066406 144.167969 C 239.152344 144.589844 239.195312 145.015625 239.195312 145.449219 C 239.199219 145.882812 239.15625 146.308594 239.074219 146.734375 C 238.992188 147.15625 238.867188 147.570312 238.703125 147.96875 C 238.539062 148.367188 238.339844 148.746094 238.101562 149.105469 C 237.863281 149.46875 237.589844 149.800781 237.285156 150.105469 C 236.980469 150.414062 236.652344 150.6875 236.292969 150.929688 C 235.933594 151.167969 235.554688 151.375 235.15625 151.539062 C 234.757812 151.707031 234.347656 151.832031 233.925781 151.917969 C 233.5 152.003906 233.074219 152.046875 232.640625 152.050781 C 232.210938 152.050781 231.78125 152.011719 231.359375 151.929688 C 230.933594 151.847656 230.523438 151.722656 230.121094 151.558594 C 229.722656 151.394531 229.34375 151.195312 228.984375 150.957031 C 228.625 150.71875 228.289062 150.445312 227.984375 150.140625 L 218.710938 140.871094 C 218.300781 140.457031 217.914062 140.027344 217.550781 139.574219 C 217.183594 139.125 216.839844 138.660156 216.519531 138.175781 C 216.199219 137.691406 215.90625 137.195312 215.632812 136.683594 C 215.363281 136.167969 215.117188 135.644531 214.894531 135.109375 C 214.675781 134.574219 214.480469 134.027344 214.3125 133.472656 C 214.144531 132.917969 214.007812 132.355469 213.894531 131.785156 C 213.78125 131.214844 213.699219 130.644531 213.640625 130.066406 C 213.585938 129.488281 213.554688 128.910156 213.554688 128.332031 C 213.554688 127.75 213.585938 127.171875 213.640625 126.59375 C 213.699219 126.019531 213.78125 125.445312 213.894531 124.875 C 214.007812 124.308594 214.144531 123.746094 214.3125 123.191406 C 214.480469 122.636719 214.675781 122.089844 214.894531 121.554688 C 215.117188 121.015625 215.363281 120.492188 215.632812 119.980469 C 215.90625 119.46875 216.199219 118.96875 216.519531 118.488281 C 216.839844 118.003906 217.183594 117.535156 217.550781 117.085938 C 217.914062 116.636719 218.300781 116.207031 218.710938 115.792969 L 234.511719 99.925781 C 235.269531 99.171875 236.085938 98.496094 236.964844 97.894531 C 237.839844 97.289062 238.765625 96.769531 239.738281 96.332031 C 240.707031 95.894531 241.710938 95.546875 242.742188 95.289062 C 243.777344 95.03125 244.824219 94.871094 245.886719 94.800781 C 246.953125 94.734375 248.011719 94.761719 249.070312 94.882812 C 250.128906 95.003906 251.167969 95.21875 252.1875 95.53125 C 253.207031 95.839844 254.1875 96.234375 255.136719 96.722656 C 256.085938 97.207031 256.980469 97.773438 257.828125 98.421875 C 257.96875 97.359375 258.207031 96.316406 258.535156 95.292969 C 258.867188 94.273438 259.289062 93.289062 259.796875 92.34375 C 260.308594 91.398438 260.898438 90.507812 261.570312 89.667969 C 262.238281 88.832031 262.980469 88.058594 263.792969 87.355469 C 264.601562 86.652344 265.472656 86.027344 266.394531 85.480469 C 267.320312 84.933594 268.285156 84.476562 269.292969 84.105469 C 270.300781 83.734375 271.332031 83.457031 272.390625 83.273438 C 273.449219 83.089844 274.515625 83 275.589844 83.011719 L 297.921875 83.011719 C 298.992188 83.007812 300.050781 83.101562 301.101562 83.292969 C 302.152344 83.484375 303.179688 83.765625 304.179688 84.140625 C 305.179688 84.515625 306.140625 84.976562 307.054688 85.523438 C 307.972656 86.070312 308.832031 86.695312 309.636719 87.398438 C 310.441406 88.101562 311.175781 88.871094 311.84375 89.707031 C 312.507812 90.542969 313.09375 91.429688 313.597656 92.371094 C 314.105469 93.3125 314.519531 94.292969 314.851562 95.308594 C 315.179688 96.324219 315.414062 97.363281 315.554688 98.421875 C 316.402344 97.78125 317.300781 97.21875 318.25 96.738281 C 319.199219 96.257812 320.183594 95.867188 321.199219 95.558594 C 322.21875 95.253906 323.257812 95.042969 324.3125 94.921875 C 325.371094 94.800781 326.429688 94.773438 327.488281 94.84375 C 328.550781 94.910156 329.597656 95.074219 330.628906 95.328125 C 331.664062 95.582031 332.664062 95.929688 333.636719 96.363281 C 334.605469 96.796875 335.53125 97.3125 336.410156 97.910156 C 337.289062 98.507812 338.109375 99.179688 338.867188 99.925781 L 354.738281 115.664062 C 355.484375 116.417969 356.160156 117.238281 356.757812 118.117188 C 357.359375 118.996094 357.878906 119.917969 358.3125 120.890625 C 358.75 121.859375 359.09375 122.863281 359.351562 123.894531 C 359.605469 124.929688 359.769531 125.976562 359.839844 127.039062 C 359.90625 128.101562 359.878906 129.160156 359.757812 130.21875 C 359.636719 131.273438 359.421875 132.3125 359.117188 133.332031 C 358.808594 134.351562 358.414062 135.335938 357.929688 136.28125 C 357.445312 137.230469 356.882812 138.128906 356.238281 138.976562 C 357.300781 139.117188 358.34375 139.355469 359.367188 139.683594 C 360.386719 140.015625 361.371094 140.4375 362.316406 140.945312 C 363.261719 141.457031 364.152344 142.046875 364.992188 142.71875 C 365.828125 143.390625 366.601562 144.128906 367.304688 144.941406 C 368.007812 145.753906 368.632812 146.621094 369.179688 147.542969 C 369.726562 148.46875 370.183594 149.433594 370.554688 150.441406 C 370.925781 151.449219 371.203125 152.484375 371.386719 153.539062 C 371.570312 154.597656 371.660156 155.664062 371.648438 156.738281 L 371.648438 179.070312 C 371.652344 180.140625 371.558594 181.199219 371.367188 182.25 C 371.179688 183.300781 370.894531 184.328125 370.519531 185.328125 C 370.144531 186.328125 369.683594 187.289062 369.136719 188.203125 C 368.589844 189.121094 367.964844 189.980469 367.261719 190.785156 C 366.558594 191.589844 365.789062 192.324219 364.953125 192.992188 C 364.117188 193.65625 363.230469 194.242188 362.289062 194.746094 C 361.347656 195.253906 360.367188 195.667969 359.351562 196 C 358.335938 196.328125 357.296875 196.5625 356.238281 196.703125 C 356.886719 197.554688 357.457031 198.457031 357.945312 199.410156 C 358.433594 200.363281 358.832031 201.351562 359.140625 202.375 C 359.453125 203.402344 359.667969 204.445312 359.792969 205.507812 C 359.914062 206.570312 359.941406 207.636719 359.875 208.707031 C 359.804688 209.773438 359.640625 210.828125 359.382812 211.867188 C 359.125 212.90625 358.777344 213.914062 358.339844 214.890625 C 357.902344 215.867188 357.378906 216.796875 356.773438 217.679688 C 356.167969 218.5625 355.488281 219.386719 354.738281 220.148438 L 339 235.886719 C 338.242188 236.632812 337.421875 237.308594 336.542969 237.90625 C 335.667969 238.507812 334.742188 239.027344 333.769531 239.460938 C 332.800781 239.898438 331.796875 240.242188 330.765625 240.5 C 329.730469 240.757812 328.683594 240.917969 327.621094 240.988281 C 326.558594 241.054688 325.5 241.027344 324.441406 240.90625 C 323.386719 240.785156 322.347656 240.570312 321.328125 240.265625 C 320.308594 239.957031 319.328125 239.5625 318.378906 239.078125 C 317.429688 238.59375 316.53125 238.03125 315.683594 237.386719 C 315.542969 238.453125 315.304688 239.496094 314.976562 240.515625 C 314.644531 241.535156 314.222656 242.519531 313.714844 243.464844 C 313.203125 244.410156 312.613281 245.300781 311.941406 246.140625 C 311.273438 246.976562 310.53125 247.75 309.71875 248.453125 C 308.910156 249.15625 308.039062 249.78125 307.117188 250.328125 C 306.191406 250.875 305.226562 251.332031 304.21875 251.703125 C 303.210938 252.074219 302.179688 252.351562 301.121094 252.535156 C 300.0625 252.71875 298.996094 252.808594 297.921875 252.796875 Z M 297.921875 252.796875 " fill-opacity="1" fill-rule="nonzero"/></g><path fill="#000000" d="M 286.757812 196.832031 C 285.808594 196.832031 284.863281 196.789062 283.921875 196.695312 C 282.976562 196.601562 282.042969 196.460938 281.113281 196.277344 C 280.183594 196.09375 279.265625 195.863281 278.359375 195.589844 C 277.453125 195.3125 276.5625 194.996094 275.683594 194.632812 C 274.808594 194.269531 273.953125 193.863281 273.117188 193.417969 C 272.285156 192.972656 271.472656 192.484375 270.683594 191.957031 C 269.894531 191.433594 269.136719 190.867188 268.402344 190.265625 C 267.671875 189.667969 266.96875 189.03125 266.300781 188.359375 C 265.628906 187.691406 264.996094 186.988281 264.394531 186.257812 C 263.792969 185.523438 263.230469 184.765625 262.703125 183.976562 C 262.175781 183.1875 261.6875 182.378906 261.242188 181.542969 C 260.796875 180.707031 260.390625 179.851562 260.027344 178.976562 C 259.667969 178.101562 259.347656 177.210938 259.074219 176.300781 C 258.796875 175.394531 258.566406 174.476562 258.382812 173.546875 C 258.199219 172.621094 258.058594 171.683594 257.964844 170.738281 C 257.875 169.796875 257.828125 168.851562 257.828125 167.90625 C 257.828125 166.957031 257.875 166.011719 257.964844 165.070312 C 258.058594 164.125 258.199219 163.191406 258.382812 162.261719 C 258.566406 161.332031 258.796875 160.414062 259.074219 159.507812 C 259.347656 158.601562 259.667969 157.710938 260.027344 156.832031 C 260.390625 155.957031 260.796875 155.101562 261.242188 154.265625 C 261.6875 153.433594 262.175781 152.621094 262.703125 151.832031 C 263.230469 151.042969 263.792969 150.285156 264.394531 149.550781 C 264.996094 148.820312 265.628906 148.117188 266.300781 147.449219 C 266.96875 146.777344 267.671875 146.144531 268.402344 145.542969 C 269.136719 144.941406 269.894531 144.378906 270.683594 143.851562 C 271.472656 143.324219 272.285156 142.839844 273.117188 142.390625 C 273.953125 141.945312 274.808594 141.539062 275.683594 141.175781 C 276.5625 140.816406 277.453125 140.496094 278.359375 140.222656 C 279.265625 139.945312 280.183594 139.714844 281.113281 139.53125 C 282.042969 139.347656 282.976562 139.207031 283.921875 139.113281 C 284.863281 139.023438 285.808594 138.976562 286.757812 138.976562 C 287.703125 138.976562 288.648438 139.023438 289.589844 139.113281 C 290.535156 139.207031 291.46875 139.347656 292.398438 139.53125 C 293.328125 139.714844 294.246094 139.945312 295.152344 140.222656 C 296.058594 140.496094 296.953125 140.816406 297.828125 141.175781 C 298.703125 141.539062 299.558594 141.945312 300.394531 142.390625 C 301.230469 142.839844 302.039062 143.324219 302.828125 143.851562 C 303.617188 144.378906 304.375 144.941406 305.109375 145.542969 C 305.839844 146.144531 306.542969 146.777344 307.210938 147.449219 C 307.882812 148.117188 308.515625 148.820312 309.117188 149.550781 C 309.71875 150.285156 310.285156 151.042969 310.808594 151.832031 C 311.335938 152.621094 311.824219 153.433594 312.269531 154.265625 C 312.714844 155.101562 313.121094 155.957031 313.484375 156.832031 C 313.84375 157.710938 314.164062 158.601562 314.4375 159.507812 C 314.714844 160.414062 314.945312 161.332031 315.128906 162.261719 C 315.3125 163.191406 315.453125 164.125 315.546875 165.070312 C 315.640625 166.011719 315.683594 166.957031 315.683594 167.90625 C 315.683594 168.851562 315.632812 169.796875 315.539062 170.738281 C 315.445312 171.679688 315.304688 172.617188 315.117188 173.542969 C 314.933594 174.472656 314.699219 175.390625 314.425781 176.296875 C 314.148438 177.199219 313.828125 178.089844 313.464844 178.964844 C 313.101562 179.839844 312.695312 180.695312 312.25 181.527344 C 311.804688 182.363281 311.316406 183.175781 310.789062 183.960938 C 310.261719 184.75 309.699219 185.507812 309.097656 186.238281 C 308.496094 186.972656 307.863281 187.671875 307.191406 188.339844 C 306.523438 189.011719 305.824219 189.644531 305.089844 190.246094 C 304.359375 190.847656 303.601562 191.410156 302.8125 191.9375 C 302.027344 192.464844 301.214844 192.953125 300.378906 193.398438 C 299.546875 193.847656 298.691406 194.25 297.816406 194.613281 C 296.941406 194.976562 296.050781 195.296875 295.144531 195.574219 C 294.242188 195.851562 293.324219 196.082031 292.394531 196.265625 C 291.46875 196.453125 290.53125 196.59375 289.589844 196.6875 C 288.648438 196.785156 287.703125 196.832031 286.757812 196.832031 Z M 286.757812 152.035156 C 286.234375 152.035156 285.71875 152.0625 285.199219 152.113281 C 284.683594 152.164062 284.167969 152.238281 283.660156 152.339844 C 283.152344 152.441406 282.648438 152.570312 282.148438 152.71875 C 281.652344 152.871094 281.164062 153.046875 280.683594 153.242188 C 280.203125 153.441406 279.734375 153.664062 279.277344 153.910156 C 278.816406 154.15625 278.371094 154.421875 277.941406 154.710938 C 277.507812 155 277.089844 155.308594 276.6875 155.636719 C 276.289062 155.96875 275.902344 156.316406 275.535156 156.683594 C 275.167969 157.050781 274.820312 157.4375 274.488281 157.835938 C 274.160156 158.238281 273.851562 158.65625 273.5625 159.089844 C 273.273438 159.519531 273.007812 159.964844 272.761719 160.425781 C 272.515625 160.882812 272.292969 161.351562 272.09375 161.832031 C 271.894531 162.3125 271.722656 162.800781 271.570312 163.296875 C 271.417969 163.796875 271.292969 164.300781 271.191406 164.808594 C 271.089844 165.320312 271.015625 165.832031 270.964844 166.347656 C 270.914062 166.867188 270.886719 167.386719 270.886719 167.90625 C 270.886719 168.425781 270.914062 168.941406 270.964844 169.460938 C 271.015625 169.976562 271.089844 170.492188 271.191406 171 C 271.292969 171.511719 271.417969 172.015625 271.570312 172.511719 C 271.722656 173.007812 271.894531 173.496094 272.09375 173.976562 C 272.292969 174.457031 272.515625 174.925781 272.761719 175.386719 C 273.007812 175.84375 273.273438 176.289062 273.5625 176.722656 C 273.851562 177.152344 274.160156 177.570312 274.488281 177.972656 C 274.820312 178.375 275.167969 178.757812 275.535156 179.125 C 275.902344 179.492188 276.289062 179.839844 276.6875 180.171875 C 277.089844 180.5 277.507812 180.808594 277.941406 181.097656 C 278.371094 181.386719 278.816406 181.65625 279.277344 181.898438 C 279.734375 182.144531 280.203125 182.367188 280.683594 182.566406 C 281.164062 182.765625 281.652344 182.9375 282.148438 183.089844 C 282.648438 183.242188 283.152344 183.367188 283.660156 183.46875 C 284.171875 183.570312 284.683594 183.644531 285.199219 183.695312 C 285.71875 183.746094 286.234375 183.773438 286.757812 183.773438 C 287.277344 183.773438 287.792969 183.746094 288.3125 183.695312 C 288.828125 183.644531 289.34375 183.570312 289.851562 183.46875 C 290.363281 183.367188 290.863281 183.242188 291.363281 183.089844 C 291.859375 182.9375 292.347656 182.765625 292.828125 182.566406 C 293.308594 182.367188 293.777344 182.144531 294.238281 181.898438 C 294.695312 181.65625 295.140625 181.386719 295.570312 181.097656 C 296.003906 180.808594 296.421875 180.5 296.824219 180.171875 C 297.226562 179.839844 297.609375 179.492188 297.976562 179.125 C 298.34375 178.757812 298.691406 178.375 299.023438 177.972656 C 299.351562 177.570312 299.660156 177.152344 299.949219 176.722656 C 300.238281 176.289062 300.503906 175.84375 300.75 175.386719 C 300.996094 174.925781 301.21875 174.457031 301.417969 173.976562 C 301.617188 173.496094 301.789062 173.007812 301.941406 172.511719 C 302.09375 172.015625 302.21875 171.511719 302.320312 171 C 302.421875 170.492188 302.496094 169.976562 302.546875 169.460938 C 302.597656 168.941406 302.625 168.425781 302.625 167.90625 C 302.625 167.386719 302.597656 166.867188 302.546875 166.347656 C 302.496094 165.832031 302.421875 165.320312 302.320312 164.808594 C 302.21875 164.300781 302.09375 163.796875 301.941406 163.296875 C 301.789062 162.800781 301.617188 162.3125 301.417969 161.832031 C 301.21875 161.351562 300.996094 160.882812 300.75 160.425781 C 300.503906 159.964844 300.238281 159.519531 299.949219 159.089844 C 299.660156 158.65625 299.351562 158.238281 299.023438 157.835938 C 298.691406 157.4375 298.34375 157.050781 297.976562 156.683594 C 297.609375 156.316406 297.226562 155.96875 296.824219 155.636719 C 296.421875 155.308594 296.003906 155 295.570312 154.710938 C 295.140625 154.421875 294.695312 154.15625 294.238281 153.910156 C 293.777344 153.664062 293.308594 153.441406 292.828125 153.242188 C 292.347656 153.046875 291.859375 152.871094 291.363281 152.71875 C 290.863281 152.570312 290.363281 152.441406 289.851562 152.339844 C 289.34375 152.238281 288.828125 152.164062 288.3125 152.113281 C 287.792969 152.0625 287.277344 152.035156 286.757812 152.035156 Z M 286.757812 152.035156 " fill-opacity="1" fill-rule="nonzero"/><path fill="#000000" d="M 90.847656 153.082031 C 90.417969 153.144531 89.988281 153.164062 89.554688 153.140625 C 89.121094 153.117188 88.695312 153.054688 88.277344 152.945312 C 87.855469 152.839844 87.449219 152.691406 87.058594 152.507812 C 86.667969 152.320312 86.300781 152.097656 85.953125 151.835938 C 85.605469 151.578125 85.285156 151.289062 84.996094 150.964844 C 84.707031 150.644531 84.449219 150.296875 84.230469 149.925781 C 84.007812 149.550781 83.824219 149.160156 83.679688 148.753906 C 83.535156 148.34375 83.433594 147.925781 83.371094 147.496094 C 83.308594 147.070312 83.289062 146.636719 83.3125 146.207031 C 83.332031 145.773438 83.398438 145.347656 83.503906 144.925781 C 83.613281 144.507812 83.757812 144.101562 83.945312 143.710938 C 84.132812 143.320312 84.355469 142.949219 84.613281 142.601562 C 84.871094 142.253906 85.164062 141.9375 85.484375 141.648438 C 85.808594 141.355469 86.152344 141.101562 86.527344 140.878906 C 86.898438 140.660156 87.289062 140.476562 87.699219 140.332031 C 88.105469 140.1875 88.523438 140.082031 88.953125 140.019531 C 96.730469 137.707031 104.65625 136.191406 112.738281 135.476562 C 120.820312 134.761719 128.890625 134.863281 136.949219 135.777344 C 137.378906 135.824219 137.800781 135.917969 138.210938 136.046875 C 138.621094 136.179688 139.015625 136.351562 139.390625 136.5625 C 139.769531 136.769531 140.121094 137.015625 140.449219 137.292969 C 140.777344 137.574219 141.078125 137.882812 141.34375 138.222656 C 141.613281 138.558594 141.847656 138.917969 142.042969 139.304688 C 142.238281 139.6875 142.398438 140.085938 142.515625 140.5 C 142.632812 140.917969 142.710938 141.339844 142.746094 141.769531 C 142.78125 142.199219 142.773438 142.628906 142.726562 143.054688 C 142.675781 143.484375 142.585938 143.90625 142.453125 144.316406 C 142.320312 144.726562 142.152344 145.121094 141.941406 145.496094 C 141.730469 145.875 141.488281 146.226562 141.207031 146.554688 C 140.929688 146.886719 140.621094 147.183594 140.285156 147.453125 C 139.945312 147.722656 139.585938 147.953125 139.203125 148.152344 C 138.816406 148.347656 138.417969 148.507812 138.003906 148.625 C 137.589844 148.742188 137.167969 148.820312 136.738281 148.855469 C 136.308594 148.890625 135.878906 148.886719 135.449219 148.835938 C 128.277344 148.007812 121.09375 147.914062 113.902344 148.550781 C 106.710938 149.191406 99.65625 150.546875 92.742188 152.625 C 92.132812 152.878906 91.503906 153.03125 90.847656 153.082031 Z M 90.847656 153.082031 " fill-opacity="1" fill-rule="nonzero"/><path fill="#000000" d="M 229.617188 291.980469 C 229.070312 292.046875 228.527344 292.046875 227.984375 291.980469 C 227.574219 291.855469 227.179688 291.6875 226.804688 291.484375 C 226.425781 291.28125 226.074219 291.042969 225.742188 290.769531 C 225.414062 290.492188 225.113281 290.191406 224.84375 289.859375 C 224.574219 289.527344 224.339844 289.167969 224.140625 288.789062 C 223.9375 288.410156 223.777344 288.015625 223.65625 287.605469 C 223.53125 287.195312 223.453125 286.777344 223.410156 286.351562 C 223.371094 285.921875 223.375 285.496094 223.417969 285.070312 C 223.460938 284.644531 223.546875 284.226562 223.671875 283.816406 C 226.660156 273.691406 228.097656 263.351562 227.984375 252.796875 C 227.972656 248.734375 227.734375 244.6875 227.265625 240.652344 C 227.199219 240.21875 227.179688 239.78125 227.203125 239.34375 C 227.230469 238.90625 227.296875 238.472656 227.40625 238.046875 C 227.519531 237.625 227.671875 237.214844 227.863281 236.820312 C 228.058594 236.425781 228.289062 236.054688 228.554688 235.707031 C 228.824219 235.359375 229.125 235.042969 229.457031 234.757812 C 229.789062 234.46875 230.144531 234.21875 230.527344 234.003906 C 230.910156 233.789062 231.3125 233.613281 231.730469 233.480469 C 232.148438 233.347656 232.574219 233.253906 233.011719 233.207031 C 233.4375 233.15625 233.867188 233.148438 234.292969 233.183594 C 234.722656 233.21875 235.144531 233.292969 235.558594 233.410156 C 235.96875 233.527344 236.367188 233.6875 236.75 233.882812 C 237.132812 234.078125 237.492188 234.308594 237.828125 234.578125 C 238.164062 234.84375 238.472656 235.140625 238.75 235.46875 C 239.027344 235.796875 239.273438 236.148438 239.480469 236.523438 C 239.691406 236.898438 239.859375 237.289062 239.992188 237.699219 C 240.121094 238.109375 240.210938 238.527344 240.261719 238.953125 C 241.195312 247.0625 241.296875 255.179688 240.558594 263.308594 C 239.820312 271.4375 238.261719 279.40625 235.886719 287.214844 C 235.691406 287.898438 235.398438 288.535156 234.996094 289.121094 C 234.597656 289.707031 234.117188 290.21875 233.550781 290.648438 C 232.984375 291.078125 232.363281 291.40625 231.691406 291.636719 C 231.019531 291.863281 230.328125 291.976562 229.617188 291.980469 Z M 229.617188 291.980469 " fill-opacity="1" fill-rule="nonzero"/><path fill="#000000" d="M 123.5 370.34375 C 115.179688 370.367188 106.953125 369.507812 98.816406 367.769531 C 90.679688 366.03125 82.820312 363.449219 75.238281 360.027344 C 74.847656 359.851562 74.476562 359.636719 74.128906 359.386719 C 73.777344 359.140625 73.453125 358.859375 73.160156 358.546875 C 72.867188 358.234375 72.605469 357.894531 72.375 357.53125 C 72.148438 357.167969 71.957031 356.785156 71.804688 356.382812 C 71.652344 355.980469 71.539062 355.566406 71.46875 355.144531 C 71.398438 354.722656 71.367188 354.292969 71.378906 353.863281 C 71.390625 353.433594 71.445312 353.011719 71.542969 352.59375 C 71.636719 352.175781 71.773438 351.769531 71.949219 351.375 C 72.125 350.984375 72.335938 350.613281 72.585938 350.261719 C 72.835938 349.914062 73.113281 349.589844 73.425781 349.296875 C 73.738281 349 74.078125 348.738281 74.441406 348.507812 C 74.804688 348.28125 75.1875 348.089844 75.589844 347.9375 C 75.992188 347.785156 76.402344 347.671875 76.824219 347.597656 C 77.25 347.527344 77.675781 347.496094 78.105469 347.507812 C 78.535156 347.519531 78.960938 347.574219 79.378906 347.667969 C 79.796875 347.765625 80.203125 347.898438 80.59375 348.074219 C 87.332031 351.132812 94.316406 353.4375 101.550781 354.992188 C 108.785156 356.542969 116.101562 357.308594 123.5 357.28125 C 133.859375 357.292969 144.003906 355.8125 153.929688 352.84375 C 154.339844 352.722656 154.761719 352.644531 155.1875 352.605469 C 155.613281 352.570312 156.042969 352.574219 156.46875 352.621094 C 156.894531 352.667969 157.3125 352.753906 157.722656 352.882812 C 158.128906 353.011719 158.523438 353.179688 158.898438 353.386719 C 159.273438 353.59375 159.625 353.832031 159.953125 354.109375 C 160.285156 354.382812 160.582031 354.6875 160.851562 355.023438 C 161.117188 355.359375 161.351562 355.714844 161.550781 356.09375 C 161.75 356.476562 161.90625 356.871094 162.027344 357.28125 C 162.152344 357.691406 162.238281 358.109375 162.28125 358.535156 C 162.328125 358.964844 162.328125 359.390625 162.289062 359.816406 C 162.25 360.242188 162.167969 360.660156 162.046875 361.070312 C 161.921875 361.484375 161.761719 361.878906 161.5625 362.257812 C 161.363281 362.636719 161.125 362.992188 160.855469 363.324219 C 160.585938 363.65625 160.285156 363.960938 159.957031 364.234375 C 159.625 364.507812 159.273438 364.746094 158.898438 364.949219 C 158.519531 365.152344 158.125 365.320312 157.71875 365.445312 C 146.550781 368.761719 135.144531 370.394531 123.5 370.34375 Z M 123.5 370.34375 " fill-opacity="1" fill-rule="nonzero"/><path fill="#000000" d="M 19.730469 298.96875 C 19.074219 298.964844 18.433594 298.867188 17.804688 298.671875 C 17.175781 298.472656 16.589844 298.191406 16.050781 297.816406 C 15.507812 297.445312 15.03125 297 14.625 296.484375 C 14.21875 295.96875 13.894531 295.402344 13.660156 294.789062 C 11.347656 288.699219 9.550781 282.460938 8.265625 276.074219 C 6.984375 269.691406 6.234375 263.242188 6.019531 256.734375 C 5.804688 250.222656 6.121094 243.738281 6.976562 237.28125 C 7.832031 230.824219 9.210938 224.484375 11.113281 218.253906 C 11.238281 217.859375 11.402344 217.480469 11.601562 217.113281 C 11.800781 216.75 12.035156 216.410156 12.296875 216.089844 C 12.5625 215.769531 12.855469 215.476562 13.175781 215.214844 C 13.496094 214.949219 13.835938 214.71875 14.203125 214.519531 C 14.566406 214.320312 14.945312 214.15625 15.339844 214.03125 C 15.738281 213.90625 16.140625 213.816406 16.550781 213.769531 C 16.964844 213.71875 17.378906 213.710938 17.792969 213.738281 C 18.207031 213.769531 18.613281 213.835938 19.015625 213.941406 C 19.433594 214.054688 19.839844 214.210938 20.230469 214.402344 C 20.621094 214.597656 20.988281 214.828125 21.332031 215.097656 C 21.675781 215.363281 21.992188 215.664062 22.277344 215.992188 C 22.558594 216.324219 22.808594 216.679688 23.023438 217.058594 C 23.234375 217.441406 23.40625 217.839844 23.542969 218.253906 C 23.675781 218.667969 23.765625 219.09375 23.8125 219.527344 C 23.863281 219.960938 23.867188 220.394531 23.828125 220.828125 C 23.789062 221.261719 23.710938 221.6875 23.585938 222.105469 C 20.535156 232.109375 19.011719 242.339844 19.015625 252.796875 C 18.941406 259.160156 19.457031 265.476562 20.554688 271.746094 C 21.652344 278.011719 23.316406 284.125 25.542969 290.085938 C 25.703125 290.476562 25.820312 290.878906 25.898438 291.292969 C 25.976562 291.707031 26.015625 292.125 26.015625 292.546875 C 26.011719 292.96875 25.972656 293.382812 25.886719 293.796875 C 25.804688 294.210938 25.683594 294.613281 25.523438 295 C 25.363281 295.390625 25.167969 295.761719 24.9375 296.113281 C 24.703125 296.464844 24.441406 296.792969 24.148438 297.09375 C 23.851562 297.394531 23.53125 297.664062 23.183594 297.902344 C 22.835938 298.140625 22.46875 298.34375 22.082031 298.511719 C 21.332031 298.824219 20.546875 298.976562 19.730469 298.96875 Z M 19.730469 298.96875 " fill-opacity="1" fill-rule="nonzero"/><path fill="#000000" d="M 45.136719 207.085938 C 44.066406 207.085938 43 207.035156 41.933594 206.929688 C 40.871094 206.824219 39.8125 206.667969 38.765625 206.460938 C 37.714844 206.25 36.679688 205.992188 35.65625 205.679688 C 34.632812 205.371094 33.628906 205.011719 32.640625 204.601562 C 31.652344 204.191406 30.6875 203.734375 29.742188 203.230469 C 28.800781 202.726562 27.882812 202.179688 26.996094 201.582031 C 26.105469 200.988281 25.246094 200.351562 24.421875 199.675781 C 23.59375 198.996094 22.804688 198.277344 22.046875 197.523438 C 21.289062 196.765625 20.574219 195.976562 19.894531 195.148438 C 19.21875 194.320312 18.582031 193.464844 17.988281 192.574219 C 17.390625 191.6875 16.84375 190.769531 16.339844 189.828125 C 15.835938 188.882812 15.378906 187.917969 14.96875 186.929688 C 14.558594 185.941406 14.199219 184.9375 13.890625 183.914062 C 13.578125 182.890625 13.320312 181.855469 13.109375 180.804688 C 12.902344 179.757812 12.746094 178.699219 12.640625 177.636719 C 12.535156 176.570312 12.484375 175.503906 12.484375 174.433594 C 12.484375 173.367188 12.535156 172.296875 12.640625 171.234375 C 12.746094 170.171875 12.902344 169.113281 13.109375 168.066406 C 13.320312 167.015625 13.578125 165.980469 13.890625 164.957031 C 14.199219 163.933594 14.558594 162.925781 14.96875 161.941406 C 15.378906 160.953125 15.835938 159.984375 16.339844 159.042969 C 16.84375 158.101562 17.390625 157.183594 17.988281 156.292969 C 18.582031 155.40625 19.21875 154.546875 19.894531 153.722656 C 20.574219 152.894531 21.289062 152.101562 22.046875 151.347656 C 22.804688 150.589844 23.59375 149.875 24.421875 149.195312 C 25.246094 148.515625 26.105469 147.878906 26.996094 147.285156 C 27.882812 146.691406 28.800781 146.144531 29.742188 145.640625 C 30.6875 145.136719 31.652344 144.679688 32.640625 144.269531 C 33.628906 143.859375 34.632812 143.5 35.65625 143.1875 C 36.679688 142.878906 37.714844 142.621094 38.765625 142.410156 C 39.8125 142.203125 40.871094 142.046875 41.933594 141.941406 C 43 141.835938 44.066406 141.785156 45.136719 141.785156 C 46.203125 141.785156 47.269531 141.835938 48.335938 141.941406 C 49.398438 142.046875 50.457031 142.203125 51.503906 142.410156 C 52.554688 142.621094 53.589844 142.878906 54.613281 143.1875 C 55.636719 143.5 56.640625 143.859375 57.628906 144.269531 C 58.617188 144.679688 59.582031 145.136719 60.527344 145.640625 C 61.46875 146.144531 62.386719 146.691406 63.273438 147.285156 C 64.164062 147.878906 65.023438 148.515625 65.847656 149.195312 C 66.675781 149.875 67.46875 150.589844 68.222656 151.347656 C 68.980469 152.101562 69.695312 152.894531 70.375 153.722656 C 71.054688 154.546875 71.691406 155.40625 72.285156 156.292969 C 72.878906 157.183594 73.425781 158.101562 73.929688 159.042969 C 74.433594 159.984375 74.890625 160.953125 75.300781 161.941406 C 75.710938 162.925781 76.070312 163.933594 76.378906 164.957031 C 76.691406 165.980469 76.949219 167.015625 77.160156 168.066406 C 77.367188 169.113281 77.523438 170.171875 77.628906 171.234375 C 77.734375 172.296875 77.785156 173.367188 77.785156 174.433594 C 77.785156 175.503906 77.734375 176.570312 77.628906 177.636719 C 77.523438 178.699219 77.367188 179.757812 77.160156 180.804688 C 76.949219 181.855469 76.691406 182.890625 76.378906 183.914062 C 76.070312 184.9375 75.710938 185.941406 75.300781 186.929688 C 74.890625 187.917969 74.433594 188.882812 73.929688 189.828125 C 73.425781 190.769531 72.878906 191.6875 72.285156 192.574219 C 71.691406 193.464844 71.054688 194.320312 70.375 195.148438 C 69.695312 195.976562 68.980469 196.765625 68.222656 197.523438 C 67.46875 198.277344 66.675781 198.996094 65.847656 199.675781 C 65.023438 200.351562 64.164062 200.988281 63.273438 201.582031 C 62.386719 202.179688 61.46875 202.726562 60.527344 203.230469 C 59.582031 203.734375 58.617188 204.191406 57.628906 204.601562 C 56.640625 205.011719 55.636719 205.371094 54.613281 205.679688 C 53.589844 205.992188 52.554688 206.25 51.503906 206.460938 C 50.457031 206.667969 49.398438 206.824219 48.335938 206.929688 C 47.269531 207.035156 46.203125 207.085938 45.136719 207.085938 Z M 45.136719 154.84375 C 44.492188 154.84375 43.851562 154.875 43.214844 154.9375 C 42.578125 155 41.941406 155.09375 41.3125 155.21875 C 40.683594 155.34375 40.0625 155.5 39.449219 155.6875 C 38.835938 155.875 38.230469 156.089844 37.636719 156.335938 C 37.046875 156.582031 36.464844 156.855469 35.898438 157.15625 C 35.335938 157.460938 34.785156 157.789062 34.25 158.144531 C 33.71875 158.503906 33.203125 158.882812 32.707031 159.289062 C 32.210938 159.699219 31.734375 160.128906 31.28125 160.582031 C 30.828125 161.035156 30.398438 161.511719 29.992188 162.007812 C 29.585938 162.503906 29.203125 163.015625 28.847656 163.550781 C 28.488281 164.085938 28.160156 164.632812 27.859375 165.199219 C 27.554688 165.765625 27.28125 166.34375 27.035156 166.9375 C 26.789062 167.53125 26.574219 168.132812 26.386719 168.746094 C 26.203125 169.363281 26.046875 169.984375 25.921875 170.613281 C 25.796875 171.242188 25.703125 171.875 25.636719 172.515625 C 25.574219 173.152344 25.542969 173.792969 25.542969 174.433594 C 25.542969 175.078125 25.574219 175.714844 25.636719 176.355469 C 25.703125 176.992188 25.796875 177.628906 25.921875 178.257812 C 26.046875 178.886719 26.203125 179.507812 26.386719 180.121094 C 26.574219 180.734375 26.789062 181.339844 27.035156 181.933594 C 27.28125 182.523438 27.554688 183.105469 27.859375 183.671875 C 28.160156 184.234375 28.488281 184.785156 28.847656 185.320312 C 29.203125 185.851562 29.585938 186.367188 29.992188 186.863281 C 30.398438 187.359375 30.828125 187.835938 31.28125 188.289062 C 31.734375 188.742188 32.210938 189.171875 32.707031 189.578125 C 33.203125 189.984375 33.71875 190.367188 34.25 190.722656 C 34.785156 191.082031 35.335938 191.410156 35.898438 191.710938 C 36.464844 192.015625 37.046875 192.289062 37.636719 192.535156 C 38.230469 192.78125 38.835938 192.996094 39.449219 193.183594 C 40.0625 193.367188 40.683594 193.523438 41.3125 193.648438 C 41.941406 193.773438 42.578125 193.867188 43.214844 193.929688 C 43.851562 193.996094 44.492188 194.027344 45.136719 194.027344 C 45.777344 194.027344 46.417969 193.996094 47.054688 193.929688 C 47.695312 193.867188 48.328125 193.773438 48.957031 193.648438 C 49.585938 193.523438 50.207031 193.367188 50.820312 193.183594 C 51.4375 192.996094 52.039062 192.78125 52.632812 192.535156 C 53.226562 192.289062 53.804688 192.015625 54.371094 191.710938 C 54.9375 191.410156 55.484375 191.082031 56.019531 190.722656 C 56.550781 190.367188 57.066406 189.984375 57.5625 189.578125 C 58.058594 189.171875 58.535156 188.742188 58.988281 188.289062 C 59.441406 187.835938 59.871094 187.359375 60.277344 186.863281 C 60.6875 186.367188 61.066406 185.851562 61.425781 185.320312 C 61.78125 184.785156 62.109375 184.234375 62.414062 183.671875 C 62.714844 183.105469 62.988281 182.523438 63.234375 181.933594 C 63.480469 181.339844 63.695312 180.734375 63.882812 180.121094 C 64.070312 179.507812 64.222656 178.886719 64.347656 178.257812 C 64.476562 177.628906 64.570312 176.992188 64.632812 176.355469 C 64.695312 175.714844 64.726562 175.078125 64.726562 174.433594 C 64.726562 173.792969 64.695312 173.152344 64.632812 172.515625 C 64.570312 171.875 64.476562 171.242188 64.347656 170.613281 C 64.222656 169.984375 64.070312 169.363281 63.882812 168.746094 C 63.695312 168.132812 63.480469 167.53125 63.234375 166.9375 C 62.988281 166.34375 62.714844 165.765625 62.414062 165.199219 C 62.109375 164.632812 61.78125 164.085938 61.425781 163.550781 C 61.066406 163.015625 60.6875 162.503906 60.277344 162.007812 C 59.871094 161.511719 59.441406 161.035156 58.988281 160.582031 C 58.535156 160.128906 58.058594 159.699219 57.5625 159.289062 C 57.066406 158.882812 56.550781 158.503906 56.019531 158.144531 C 55.484375 157.789062 54.9375 157.460938 54.371094 157.15625 C 53.804688 156.855469 53.226562 156.582031 52.632812 156.335938 C 52.039062 156.089844 51.4375 155.875 50.820312 155.6875 C 50.207031 155.5 49.585938 155.34375 48.957031 155.21875 C 48.328125 155.09375 47.695312 155 47.054688 154.9375 C 46.417969 154.875 45.777344 154.84375 45.136719 154.84375 Z M 45.136719 154.84375 " fill-opacity="1" fill-rule="nonzero"/><path fill="#000000" d="M 201.863281 363.8125 C 200.792969 363.8125 199.726562 363.761719 198.660156 363.65625 C 197.597656 363.550781 196.542969 363.394531 195.492188 363.1875 C 194.441406 362.976562 193.40625 362.71875 192.382812 362.40625 C 191.359375 362.097656 190.355469 361.738281 189.367188 361.328125 C 188.378906 360.917969 187.414062 360.460938 186.46875 359.957031 C 185.527344 359.453125 184.609375 358.90625 183.722656 358.3125 C 182.832031 357.714844 181.976562 357.082031 181.148438 356.402344 C 180.320312 355.722656 179.53125 355.007812 178.773438 354.25 C 178.019531 353.492188 177.300781 352.703125 176.621094 351.875 C 175.945312 351.050781 175.308594 350.191406 174.714844 349.300781 C 174.121094 348.414062 173.570312 347.496094 173.066406 346.554688 C 172.5625 345.609375 172.105469 344.644531 171.695312 343.65625 C 171.285156 342.667969 170.925781 341.664062 170.617188 340.640625 C 170.304688 339.617188 170.046875 338.582031 169.839844 337.53125 C 169.628906 336.484375 169.472656 335.425781 169.367188 334.363281 C 169.261719 333.296875 169.210938 332.230469 169.210938 331.160156 C 169.210938 330.09375 169.261719 329.027344 169.367188 327.960938 C 169.472656 326.898438 169.628906 325.839844 169.839844 324.792969 C 170.046875 323.742188 170.304688 322.707031 170.617188 321.683594 C 170.925781 320.660156 171.285156 319.65625 171.695312 318.667969 C 172.105469 317.679688 172.5625 316.714844 173.066406 315.769531 C 173.570312 314.828125 174.121094 313.910156 174.714844 313.023438 C 175.308594 312.132812 175.945312 311.273438 176.621094 310.449219 C 177.300781 309.621094 178.019531 308.828125 178.773438 308.074219 C 179.53125 307.316406 180.320312 306.601562 181.148438 305.921875 C 181.976562 305.242188 182.832031 304.605469 183.722656 304.011719 C 184.609375 303.417969 185.527344 302.871094 186.46875 302.367188 C 187.414062 301.863281 188.378906 301.40625 189.367188 300.996094 C 190.355469 300.585938 191.359375 300.226562 192.382812 299.917969 C 193.40625 299.605469 194.441406 299.347656 195.492188 299.136719 C 196.542969 298.929688 197.597656 298.773438 198.660156 298.667969 C 199.726562 298.5625 200.792969 298.511719 201.863281 298.511719 C 202.929688 298.511719 204 298.5625 205.0625 298.667969 C 206.125 298.773438 207.183594 298.929688 208.230469 299.136719 C 209.28125 299.347656 210.316406 299.605469 211.339844 299.917969 C 212.363281 300.226562 213.371094 300.585938 214.355469 300.996094 C 215.34375 301.40625 216.3125 301.863281 217.253906 302.367188 C 218.195312 302.871094 219.113281 303.417969 220.003906 304.011719 C 220.890625 304.605469 221.75 305.242188 222.574219 305.921875 C 223.402344 306.601562 224.195312 307.316406 224.949219 308.074219 C 225.707031 308.828125 226.421875 309.621094 227.101562 310.449219 C 227.78125 311.273438 228.417969 312.132812 229.011719 313.023438 C 229.605469 313.910156 230.152344 314.828125 230.660156 315.769531 C 231.164062 316.714844 231.617188 317.679688 232.027344 318.667969 C 232.4375 319.65625 232.796875 320.660156 233.109375 321.683594 C 233.417969 322.707031 233.675781 323.742188 233.886719 324.792969 C 234.09375 325.839844 234.25 326.898438 234.355469 327.960938 C 234.460938 329.027344 234.511719 330.09375 234.511719 331.160156 C 234.511719 332.230469 234.460938 333.296875 234.355469 334.363281 C 234.25 335.425781 234.09375 336.484375 233.886719 337.53125 C 233.675781 338.582031 233.417969 339.617188 233.109375 340.640625 C 232.796875 341.664062 232.4375 342.667969 232.027344 343.65625 C 231.617188 344.644531 231.164062 345.609375 230.660156 346.554688 C 230.152344 347.496094 229.605469 348.414062 229.011719 349.300781 C 228.417969 350.191406 227.78125 351.050781 227.101562 351.875 C 226.421875 352.703125 225.707031 353.492188 224.949219 354.25 C 224.195312 355.007812 223.402344 355.722656 222.574219 356.402344 C 221.75 357.082031 220.890625 357.714844 220.003906 358.3125 C 219.113281 358.90625 218.195312 359.453125 217.253906 359.957031 C 216.3125 360.460938 215.34375 360.917969 214.355469 361.328125 C 213.371094 361.738281 212.363281 362.097656 211.339844 362.40625 C 210.316406 362.71875 209.28125 362.976562 208.230469 363.1875 C 207.183594 363.394531 206.125 363.550781 205.0625 363.65625 C 204 363.761719 202.929688 363.8125 201.863281 363.8125 Z M 201.863281 311.570312 C 201.21875 311.570312 200.582031 311.601562 199.941406 311.664062 C 199.304688 311.726562 198.667969 311.824219 198.039062 311.949219 C 197.410156 312.074219 196.789062 312.226562 196.175781 312.414062 C 195.5625 312.601562 194.957031 312.816406 194.363281 313.0625 C 193.773438 313.308594 193.191406 313.582031 192.628906 313.882812 C 192.0625 314.1875 191.511719 314.515625 190.976562 314.871094 C 190.445312 315.230469 189.929688 315.609375 189.433594 316.019531 C 188.9375 316.425781 188.464844 316.855469 188.007812 317.308594 C 187.554688 317.761719 187.125 318.238281 186.71875 318.734375 C 186.3125 319.230469 185.929688 319.746094 185.574219 320.277344 C 185.214844 320.8125 184.886719 321.359375 184.585938 321.925781 C 184.28125 322.492188 184.007812 323.070312 183.761719 323.664062 C 183.515625 324.257812 183.300781 324.859375 183.113281 325.476562 C 182.929688 326.089844 182.773438 326.710938 182.648438 327.339844 C 182.523438 327.96875 182.429688 328.601562 182.367188 329.242188 C 182.304688 329.878906 182.269531 330.519531 182.269531 331.160156 C 182.269531 331.804688 182.304688 332.445312 182.367188 333.082031 C 182.429688 333.722656 182.523438 334.355469 182.648438 334.984375 C 182.773438 335.613281 182.929688 336.234375 183.113281 336.847656 C 183.300781 337.464844 183.515625 338.066406 183.761719 338.660156 C 184.007812 339.25 184.28125 339.832031 184.585938 340.398438 C 184.886719 340.960938 185.214844 341.511719 185.574219 342.046875 C 185.929688 342.578125 186.3125 343.09375 186.71875 343.589844 C 187.125 344.085938 187.554688 344.5625 188.007812 345.015625 C 188.464844 345.46875 188.9375 345.898438 189.433594 346.304688 C 189.929688 346.714844 190.445312 347.09375 190.976562 347.453125 C 191.511719 347.808594 192.0625 348.136719 192.628906 348.441406 C 193.191406 348.742188 193.773438 349.015625 194.363281 349.261719 C 194.957031 349.507812 195.5625 349.722656 196.175781 349.910156 C 196.789062 350.09375 197.410156 350.25 198.039062 350.375 C 198.667969 350.5 199.304688 350.59375 199.941406 350.660156 C 200.582031 350.722656 201.21875 350.753906 201.863281 350.753906 C 202.503906 350.753906 203.144531 350.722656 203.78125 350.660156 C 204.421875 350.59375 205.054688 350.5 205.683594 350.375 C 206.3125 350.25 206.933594 350.09375 207.550781 349.910156 C 208.164062 349.722656 208.765625 349.507812 209.359375 349.261719 C 209.953125 349.015625 210.53125 348.742188 211.097656 348.441406 C 211.664062 348.136719 212.210938 347.808594 212.746094 347.449219 C 213.28125 347.09375 213.792969 346.714844 214.289062 346.304688 C 214.785156 345.898438 215.261719 345.46875 215.714844 345.015625 C 216.167969 344.5625 216.597656 344.085938 217.007812 343.589844 C 217.414062 343.09375 217.792969 342.578125 218.152344 342.046875 C 218.507812 341.511719 218.835938 340.960938 219.140625 340.398438 C 219.441406 339.832031 219.714844 339.25 219.960938 338.660156 C 220.207031 338.066406 220.421875 337.464844 220.609375 336.847656 C 220.796875 336.234375 220.953125 335.613281 221.078125 334.984375 C 221.203125 334.355469 221.296875 333.722656 221.359375 333.082031 C 221.421875 332.445312 221.453125 331.804688 221.453125 331.160156 C 221.453125 330.519531 221.421875 329.878906 221.359375 329.242188 C 221.296875 328.601562 221.203125 327.96875 221.078125 327.339844 C 220.953125 326.710938 220.796875 326.089844 220.609375 325.476562 C 220.421875 324.859375 220.207031 324.257812 219.960938 323.664062 C 219.714844 323.070312 219.441406 322.492188 219.140625 321.925781 C 218.835938 321.359375 218.507812 320.8125 218.152344 320.277344 C 217.792969 319.746094 217.414062 319.230469 217.007812 318.734375 C 216.597656 318.238281 216.167969 317.761719 215.714844 317.308594 C 215.261719 316.855469 214.785156 316.425781 214.289062 316.019531 C 213.792969 315.609375 213.28125 315.230469 212.746094 314.871094 C 212.210938 314.515625 211.664062 314.1875 211.097656 313.882812 C 210.53125 313.582031 209.953125 313.308594 209.359375 313.0625 C 208.765625 312.816406 208.164062 312.601562 207.550781 312.414062 C 206.933594 312.226562 206.3125 312.074219 205.683594 311.949219 C 205.054688 311.824219 204.421875 311.726562 203.78125 311.664062 C 203.144531 311.601562 202.503906 311.570312 201.863281 311.570312 Z M 201.863281 311.570312 " fill-opacity="1" fill-rule="nonzero"/><path fill="#000000" d="M 122.128906 320.386719 C 121.253906 320.382812 120.417969 320.210938 119.613281 319.871094 C 118.808594 319.53125 118.101562 319.050781 117.492188 318.429688 L 52.90625 253.777344 C 52.605469 253.476562 52.335938 253.144531 52.101562 252.789062 C 51.863281 252.433594 51.664062 252.058594 51.5 251.664062 C 51.335938 251.269531 51.214844 250.863281 51.132812 250.445312 C 51.046875 250.023438 51.007812 249.601562 51.007812 249.175781 C 51.007812 248.746094 51.046875 248.324219 51.132812 247.90625 C 51.214844 247.484375 51.335938 247.078125 51.5 246.683594 C 51.664062 246.289062 51.863281 245.914062 52.101562 245.558594 C 52.335938 245.203125 52.605469 244.875 52.90625 244.570312 L 145.246094 152.230469 C 145.546875 151.929688 145.875 151.660156 146.234375 151.425781 C 146.589844 151.1875 146.964844 150.988281 147.359375 150.828125 C 147.753906 150.664062 148.160156 150.539062 148.578125 150.457031 C 149 150.375 149.421875 150.332031 149.847656 150.332031 C 150.277344 150.332031 150.699219 150.375 151.117188 150.457031 C 151.535156 150.539062 151.945312 150.664062 152.339844 150.828125 C 152.734375 150.988281 153.109375 151.1875 153.464844 151.425781 C 153.820312 151.660156 154.148438 151.929688 154.453125 152.230469 L 219.101562 216.882812 C 219.707031 217.488281 220.171875 218.191406 220.5 218.980469 C 220.828125 219.773438 220.992188 220.597656 220.996094 221.453125 C 221 222.320312 220.839844 223.15625 220.511719 223.960938 C 220.183594 224.761719 219.714844 225.472656 219.101562 226.089844 L 126.765625 318.429688 C 126.152344 319.050781 125.445312 319.53125 124.640625 319.871094 C 123.839844 320.210938 123 320.382812 122.128906 320.386719 Z M 66.75 249.207031 L 122.128906 304.582031 L 205.257812 221.453125 L 149.621094 166.074219 Z M 66.75 249.207031 " fill-opacity="1" fill-rule="nonzero"/><path fill="#000000" d="M 24.042969 353.820312 C 23.78125 353.820312 23.523438 353.804688 23.265625 353.773438 C 23.011719 353.742188 22.753906 353.695312 22.503906 353.632812 C 22.253906 353.570312 22.003906 353.492188 21.761719 353.402344 C 21.519531 353.308594 21.285156 353.203125 21.054688 353.085938 C 20.824219 352.964844 20.601562 352.832031 20.386719 352.6875 C 20.171875 352.539062 19.96875 352.382812 19.773438 352.210938 C 19.578125 352.039062 19.394531 351.859375 19.21875 351.667969 C 19.046875 351.476562 18.886719 351.273438 18.734375 351.0625 C 18.585938 350.847656 18.449219 350.628906 18.324219 350.402344 C 18.203125 350.171875 18.09375 349.9375 17.996094 349.699219 C 17.902344 349.457031 17.820312 349.210938 17.753906 348.960938 C 17.6875 348.710938 17.636719 348.457031 17.601562 348.199219 C 17.566406 347.941406 17.542969 347.683594 17.539062 347.425781 C 17.535156 347.167969 17.542969 346.90625 17.570312 346.648438 C 17.59375 346.390625 17.636719 346.136719 17.691406 345.882812 C 17.746094 345.628906 17.816406 345.382812 17.902344 345.136719 L 51.339844 247.183594 C 51.429688 246.921875 51.535156 246.667969 51.65625 246.421875 C 51.78125 246.175781 51.917969 245.9375 52.070312 245.710938 C 52.222656 245.480469 52.390625 245.261719 52.570312 245.054688 C 52.75 244.847656 52.941406 244.652344 53.144531 244.46875 C 53.351562 244.285156 53.566406 244.113281 53.792969 243.957031 C 54.019531 243.800781 54.253906 243.660156 54.5 243.53125 C 54.742188 243.40625 54.992188 243.296875 55.25 243.199219 C 55.507812 243.105469 55.773438 243.027344 56.039062 242.964844 C 56.308594 242.902344 56.578125 242.859375 56.851562 242.832031 C 57.128906 242.804688 57.402344 242.792969 57.675781 242.800781 C 57.953125 242.808594 58.226562 242.832031 58.496094 242.875 C 58.769531 242.914062 59.035156 242.972656 59.300781 243.050781 C 59.566406 243.125 59.824219 243.21875 60.078125 243.324219 C 60.328125 243.433594 60.574219 243.558594 60.8125 243.695312 C 61.050781 243.835938 61.277344 243.988281 61.496094 244.15625 C 61.710938 244.324219 61.917969 244.507812 62.113281 244.699219 L 126.765625 309.351562 C 127.5625 310.144531 128.117188 311.078125 128.429688 312.160156 C 128.742188 313.238281 128.777344 314.328125 128.527344 315.425781 C 128.273438 316.519531 127.769531 317.488281 127.011719 318.324219 C 126.257812 319.160156 125.347656 319.761719 124.28125 320.125 L 26.328125 353.5625 C 25.582031 353.785156 24.820312 353.871094 24.042969 353.820312 Z M 60.285156 261.222656 L 34.554688 336.777344 L 110.4375 311.046875 Z M 60.285156 261.222656 " fill-opacity="1" fill-rule="nonzero"/><path fill="#000000" d="M 24.042969 353.820312 C 23.78125 353.820312 23.523438 353.804688 23.265625 353.773438 C 23.011719 353.742188 22.753906 353.695312 22.503906 353.632812 C 22.253906 353.570312 22.003906 353.492188 21.761719 353.402344 C 21.519531 353.308594 21.285156 353.203125 21.054688 353.085938 C 20.824219 352.964844 20.601562 352.832031 20.386719 352.6875 C 20.171875 352.539062 19.96875 352.382812 19.773438 352.210938 C 19.578125 352.039062 19.394531 351.859375 19.21875 351.667969 C 19.046875 351.476562 18.886719 351.273438 18.734375 351.0625 C 18.585938 350.847656 18.449219 350.628906 18.324219 350.402344 C 18.203125 350.171875 18.09375 349.9375 17.996094 349.699219 C 17.902344 349.457031 17.820312 349.210938 17.753906 348.960938 C 17.6875 348.710938 17.636719 348.457031 17.601562 348.199219 C 17.566406 347.941406 17.542969 347.683594 17.539062 347.425781 C 17.535156 347.167969 17.542969 346.90625 17.570312 346.648438 C 17.59375 346.390625 17.636719 346.136719 17.691406 345.882812 C 17.746094 345.628906 17.816406 345.382812 17.902344 345.136719 L 32.402344 302.429688 C 32.644531 301.710938 33 301.058594 33.472656 300.464844 C 33.941406 299.871094 34.5 299.375 35.144531 298.976562 C 35.785156 298.578125 36.476562 298.296875 37.21875 298.140625 C 37.957031 297.980469 38.703125 297.953125 39.453125 298.054688 C 41.585938 298.324219 43.679688 298.769531 45.738281 299.386719 C 47.796875 300.007812 49.789062 300.789062 51.71875 301.742188 C 53.644531 302.691406 55.480469 303.792969 57.226562 305.046875 C 58.972656 306.304688 60.601562 307.695312 62.113281 309.21875 C 65.164062 312.285156 67.644531 315.757812 69.554688 319.636719 C 71.464844 323.511719 72.707031 327.59375 73.28125 331.878906 C 73.375 332.625 73.339844 333.363281 73.175781 334.097656 C 73.015625 334.832031 72.734375 335.515625 72.335938 336.152344 C 71.9375 336.789062 71.441406 337.339844 70.855469 337.804688 C 70.265625 338.273438 69.617188 338.625 68.90625 338.867188 L 26.199219 353.429688 C 25.5 353.683594 24.78125 353.8125 24.042969 353.820312 Z M 42.914062 312.222656 L 34.554688 336.777344 L 59.109375 328.417969 C 58.464844 326.542969 57.617188 324.761719 56.5625 323.082031 C 55.511719 321.398438 54.285156 319.855469 52.882812 318.453125 C 51.480469 317.050781 49.9375 315.820312 48.253906 314.769531 C 46.570312 313.71875 44.792969 312.871094 42.914062 312.222656 Z M 42.914062 312.222656 " fill-opacity="1" fill-rule="nonzero"/><path fill="#000000" d="M 214.464844 230.726562 L 140.609375 156.804688 L 163.726562 133.75 C 164.1875 133.3125 164.667969 132.898438 165.171875 132.503906 C 165.671875 132.113281 166.191406 131.746094 166.726562 131.402344 C 167.261719 131.058594 167.8125 130.742188 168.378906 130.449219 C 168.945312 130.160156 169.527344 129.894531 170.117188 129.660156 C 170.707031 129.425781 171.308594 129.214844 171.921875 129.039062 C 172.53125 128.859375 173.148438 128.710938 173.773438 128.589844 C 174.398438 128.46875 175.03125 128.378906 175.664062 128.320312 C 176.296875 128.257812 176.933594 128.226562 177.570312 128.226562 C 178.207031 128.226562 178.839844 128.257812 179.476562 128.320312 C 180.109375 128.378906 180.738281 128.46875 181.363281 128.589844 C 181.988281 128.710938 182.605469 128.859375 183.21875 129.039062 C 183.828125 129.214844 184.429688 129.425781 185.023438 129.660156 C 185.613281 129.894531 186.191406 130.160156 186.757812 130.449219 C 187.324219 130.742188 187.875 131.058594 188.414062 131.402344 C 188.949219 131.746094 189.46875 132.113281 189.96875 132.503906 C 190.46875 132.898438 190.953125 133.3125 191.414062 133.75 L 237.582031 179.921875 C 238.035156 180.375 238.464844 180.847656 238.871094 181.34375 C 239.277344 181.839844 239.660156 182.355469 240.015625 182.886719 C 240.371094 183.421875 240.699219 183.972656 241.003906 184.535156 C 241.304688 185.101562 241.578125 185.679688 241.824219 186.273438 C 242.070312 186.867188 242.285156 187.46875 242.46875 188.082031 C 242.65625 188.695312 242.8125 189.316406 242.9375 189.945312 C 243.0625 190.574219 243.15625 191.207031 243.21875 191.847656 C 243.28125 192.484375 243.3125 193.125 243.3125 193.765625 C 243.3125 194.40625 243.28125 195.046875 243.21875 195.683594 C 243.15625 196.320312 243.0625 196.953125 242.9375 197.582031 C 242.8125 198.210938 242.65625 198.832031 242.46875 199.445312 C 242.285156 200.0625 242.070312 200.664062 241.824219 201.257812 C 241.578125 201.847656 241.304688 202.425781 241.003906 202.992188 C 240.699219 203.558594 240.371094 204.109375 240.015625 204.640625 C 239.660156 205.175781 239.277344 205.6875 238.871094 206.183594 C 238.464844 206.679688 238.035156 207.15625 237.582031 207.609375 Z M 159.089844 156.804688 L 214.464844 212.246094 L 228.375 198.402344 C 228.679688 198.097656 228.953125 197.765625 229.195312 197.410156 C 229.4375 197.050781 229.640625 196.675781 229.804688 196.277344 C 229.96875 195.878906 230.09375 195.46875 230.179688 195.046875 C 230.265625 194.621094 230.308594 194.195312 230.308594 193.765625 C 230.308594 193.332031 230.265625 192.90625 230.179688 192.484375 C 230.09375 192.0625 229.96875 191.652344 229.804688 191.253906 C 229.640625 190.855469 229.4375 190.476562 229.195312 190.121094 C 228.953125 189.761719 228.679688 189.433594 228.375 189.128906 L 182.269531 142.957031 C 181.96875 142.65625 181.640625 142.390625 181.285156 142.152344 C 180.925781 141.914062 180.550781 141.714844 180.15625 141.554688 C 179.761719 141.390625 179.355469 141.265625 178.9375 141.183594 C 178.519531 141.101562 178.09375 141.058594 177.667969 141.058594 C 177.242188 141.058594 176.816406 141.101562 176.398438 141.183594 C 175.980469 141.265625 175.574219 141.390625 175.175781 141.554688 C 174.78125 141.714844 174.40625 141.914062 174.050781 142.152344 C 173.695312 142.390625 173.367188 142.65625 173.0625 142.957031 Z M 159.089844 156.804688 " fill-opacity="1" fill-rule="nonzero"/><path fill="#000000" d="M 122.128906 320.386719 C 121.253906 320.382812 120.417969 320.210938 119.613281 319.871094 C 118.808594 319.53125 118.101562 319.050781 117.492188 318.429688 L 99.074219 299.945312 C 98.773438 299.644531 98.503906 299.316406 98.269531 298.960938 C 98.03125 298.605469 97.832031 298.226562 97.667969 297.832031 C 97.507812 297.4375 97.382812 297.03125 97.300781 296.613281 C 97.21875 296.195312 97.175781 295.769531 97.175781 295.34375 C 97.175781 294.917969 97.21875 294.492188 97.300781 294.074219 C 97.382812 293.65625 97.507812 293.25 97.667969 292.851562 C 97.832031 292.457031 98.03125 292.082031 98.269531 291.726562 C 98.503906 291.371094 98.773438 291.042969 99.074219 290.738281 L 191.414062 198.402344 C 191.714844 198.101562 192.046875 197.832031 192.402344 197.59375 C 192.757812 197.359375 193.132812 197.160156 193.527344 196.996094 C 193.921875 196.832031 194.328125 196.710938 194.75 196.625 C 195.167969 196.542969 195.589844 196.503906 196.015625 196.503906 C 196.445312 196.503906 196.867188 196.542969 197.285156 196.625 C 197.707031 196.710938 198.113281 196.832031 198.507812 196.996094 C 198.902344 197.160156 199.277344 197.359375 199.632812 197.59375 C 199.988281 197.832031 200.320312 198.101562 200.621094 198.402344 L 219.101562 216.882812 C 219.707031 217.488281 220.171875 218.191406 220.5 218.980469 C 220.828125 219.773438 220.992188 220.597656 220.996094 221.453125 C 221 222.320312 220.839844 223.15625 220.511719 223.960938 C 220.183594 224.761719 219.714844 225.472656 219.101562 226.089844 L 126.765625 318.429688 C 126.152344 319.050781 125.445312 319.53125 124.640625 319.871094 C 123.839844 320.210938 123 320.382812 122.128906 320.386719 Z M 112.917969 295.375 L 122.128906 304.582031 L 205.257812 221.453125 L 196.050781 212.246094 Z M 112.917969 295.375 " fill-opacity="1" fill-rule="nonzero"/><path fill="#000000" d="M 75.957031 274.21875 C 75.082031 274.242188 74.238281 274.09375 73.421875 273.777344 C 72.609375 273.457031 71.886719 272.996094 71.257812 272.390625 L 52.839844 253.910156 C 52.539062 253.605469 52.269531 253.277344 52.035156 252.921875 C 51.796875 252.566406 51.597656 252.191406 51.433594 251.792969 C 51.273438 251.398438 51.148438 250.992188 51.066406 250.574219 C 50.984375 250.15625 50.941406 249.730469 50.941406 249.304688 C 50.941406 248.878906 50.984375 248.453125 51.066406 248.035156 C 51.148438 247.617188 51.273438 247.210938 51.433594 246.816406 C 51.597656 246.417969 51.796875 246.042969 52.035156 245.6875 C 52.269531 245.332031 52.539062 245.003906 52.839844 244.699219 L 145.246094 152.230469 C 145.546875 151.929688 145.875 151.660156 146.234375 151.425781 C 146.589844 151.1875 146.964844 150.988281 147.359375 150.828125 C 147.753906 150.664062 148.160156 150.539062 148.578125 150.457031 C 149 150.375 149.421875 150.332031 149.847656 150.332031 C 150.277344 150.332031 150.699219 150.375 151.117188 150.457031 C 151.535156 150.539062 151.945312 150.664062 152.339844 150.828125 C 152.734375 150.988281 153.109375 151.1875 153.464844 151.425781 C 153.820312 151.660156 154.148438 151.929688 154.453125 152.230469 L 172.933594 170.710938 C 173.535156 171.320312 174 172.019531 174.328125 172.8125 C 174.65625 173.601562 174.824219 174.425781 174.828125 175.285156 C 174.832031 176.152344 174.671875 176.988281 174.34375 177.789062 C 174.015625 178.59375 173.542969 179.304688 172.933594 179.921875 L 80.59375 272.390625 C 79.972656 272.988281 79.261719 273.445312 78.457031 273.761719 C 77.65625 274.078125 76.820312 274.230469 75.957031 274.21875 Z M 66.75 249.207031 L 75.957031 258.414062 L 159.089844 175.285156 L 149.621094 166.074219 Z M 66.75 249.207031 " fill-opacity="1" fill-rule="nonzero"/></svg>