<svg xmlns="http://www.w3.org/2000/svg" xmlns:xlink="http://www.w3.org/1999/xlink" width="500" zoomAndPan="magnify" viewBox="0 0 375 374.999991" height="500" preserveAspectRatio="xMidYMid meet" version="1.0"><defs><g/><clipPath id="5223c1a7e1"><rect x="0" width="364" y="0" height="322"/></clipPath></defs><g transform="matrix(1, 0, 0, 1, 3, 3)"><g clip-path="url(#5223c1a7e1)"><g fill="#ffffff" fill-opacity="1"><g transform="translate(1.03499, 270.591499)"><g><path d="M 30.53125 -6.109375 L 30.53125 -75.875 L 13.953125 -84.890625 L 13.953125 -127.328125 L 30.53125 -118.328125 L 30.53125 -191.296875 L 52.625 -203.796875 L 85.765625 -186.34375 L 85.765625 -144.484375 L 68.90625 -156.984375 L 68.90625 -18.3125 L 85.765625 -10.171875 L 85.765625 36.625 L 47.96875 15.125 Z M 30.53125 -6.109375 "/></g></g></g><g fill="#ffffff" fill-opacity="1"><g transform="translate(98.426905, 270.591499)"><g><path d="M 14.25 -17.4375 L 14.25 -163.390625 L 85.765625 -204.375 L 157.28125 -163.390625 L 157.28125 -17.4375 L 121.515625 1.75 L 121.515625 -58.71875 L 85.765625 -39.53125 L 50 -58.71875 L 50 1.75 Z M 121.515625 -100 L 121.515625 -141.296875 L 85.765625 -163.390625 L 50 -141.296875 L 50 -100 L 85.765625 -80.8125 Z M 121.515625 -100 "/></g></g></g><g fill="#ffffff" fill-opacity="1"><g transform="translate(266.173575, 270.591499)"><g><path d="M 70.0625 -159.3125 L 70.0625 -91.28125 L 86.921875 -83.140625 L 86.921875 -40.40625 L 70.0625 -48.84375 L 70.0625 19.1875 L 49.421875 36.921875 L 15.125 15.40625 L 15.125 -26.75 L 31.6875 -13.953125 L 31.6875 -150.59375 L 15.125 -159.3125 L 15.125 -201.765625 L 53.5 -179.953125 Z M 70.0625 -159.3125 "/></g></g></g></g></g></svg>