<svg xmlns="http://www.w3.org/2000/svg" width="24" height="24" viewBox="0 0 24 24" fill="none" stroke="currentColor" stroke-width="2" stroke-linecap="round" stroke-linejoin="round" class="lucide lucide-brain-circuit"><path d="M12 5a3 3 0 1 0-5.993.142"/><path d="M18 12a3 3 0 1 0-4 2.828"/><path d="M12 19a3 3 0 1 0 .142-5.993"/><path d="M5.993 18.858A3 3 0 1 0 12 13"/><path d="M18.007 5.142A3 3 0 1 0 12 11"/><path d="M9.172 12a3 3 0 1 0 2.828 4"/><path d="M14.828 12a3 3 0 1 0-2.828-4"/><path d="M6.142 6.007A3 3 0 1 0 11 12"/><path d="M18.858 18.007A3 3 0 1 0 13 12"/><path d="M5.142 11.993A3 3 0 1 0 12 7"/></svg>