<svg xmlns="http://www.w3.org/2000/svg" xmlns:xlink="http://www.w3.org/1999/xlink" width="500" zoomAndPan="magnify" viewBox="0 0 375 374.999991" height="500" preserveAspectRatio="xMidYMid meet" version="1.0"><defs><clipPath id="371c7252c3"><path d="M 11 22.007812 L 363 22.007812 L 363 352.757812 L 11 352.757812 Z M 11 22.007812 " clip-rule="nonzero"/></clipPath></defs><g clip-path="url(#371c7252c3)"><path fill="#000000" d="M 358.511719 309.222656 L 306.5625 258.878906 C 303.867188 256.265625 300.304688 254.851562 296.53125 254.914062 C 294.484375 254.945312 292.515625 255.417969 290.71875 256.265625 L 269.886719 236.078125 L 348.0625 236.078125 C 349.625 236.078125 351.109375 235.417969 352.152344 234.257812 C 353.195312 233.101562 353.695312 231.554688 353.527344 230.003906 C 351.308594 209.304688 337.679688 192.425781 319.257812 185.300781 C 325.667969 179.777344 329.734375 171.613281 329.734375 162.515625 C 329.734375 145.914062 316.210938 132.410156 299.589844 132.410156 C 289.726562 132.410156 280.957031 137.164062 275.453125 144.5 C 260.773438 107.472656 224.566406 81.214844 182.335938 81.214844 C 140.097656 81.214844 103.890625 107.472656 89.214844 144.503906 C 83.710938 137.167969 74.945312 132.410156 65.082031 132.410156 C 48.457031 132.410156 34.933594 145.914062 34.933594 162.515625 C 34.933594 171.613281 39 179.777344 45.410156 185.300781 C 26.988281 192.425781 13.359375 209.304688 11.140625 230.003906 C 10.976562 231.554688 11.476562 233.097656 12.519531 234.257812 C 13.5625 235.414062 15.046875 236.074219 16.605469 236.074219 L 98.71875 236.074219 C 116.636719 263.207031 147.425781 281.152344 182.332031 281.152344 C 205.671875 281.152344 227.171875 273.132812 244.214844 259.707031 L 266.027344 280.84375 C 264.609375 283.113281 263.859375 285.746094 263.902344 288.496094 C 263.960938 292.261719 265.476562 295.773438 268.171875 298.386719 L 320.125 348.734375 C 322.859375 351.382812 326.398438 352.699219 329.9375 352.699219 C 333.617188 352.699219 337.296875 351.273438 340.054688 348.433594 L 358.8125 329.128906 C 364.226562 323.558594 364.089844 314.628906 358.511719 309.222656 Z M 341.511719 225.101562 L 272.242188 225.101562 C 276.578125 216.28125 279.652344 206.738281 281.226562 196.703125 C 286.9375 194.03125 293.226562 192.625 299.578125 192.625 C 299.582031 192.625 299.585938 192.625 299.589844 192.625 C 299.589844 192.625 299.59375 192.625 299.597656 192.625 C 319.667969 192.628906 336.722656 206.21875 341.511719 225.101562 Z M 299.589844 143.386719 C 310.152344 143.386719 318.746094 151.96875 318.746094 162.515625 C 318.746094 173.066406 310.15625 181.644531 299.597656 181.648438 C 299.59375 181.648438 299.59375 181.648438 299.589844 181.648438 C 299.585938 181.648438 299.585938 181.648438 299.582031 181.648438 C 291.472656 181.644531 284.527344 176.578125 281.742188 169.449219 C 281.421875 166.742188 281 164.066406 280.464844 161.425781 C 281.035156 151.382812 289.394531 143.386719 299.589844 143.386719 Z M 45.925781 162.515625 C 45.925781 151.96875 54.519531 143.386719 65.082031 143.386719 C 75.277344 143.386719 83.636719 151.378906 84.207031 161.421875 C 83.671875 164.0625 83.25 166.742188 82.929688 169.457031 C 80.144531 176.582031 73.199219 181.644531 65.089844 181.648438 C 65.089844 181.648438 65.085938 181.648438 65.082031 181.648438 C 65.082031 181.648438 65.078125 181.648438 65.078125 181.648438 C 54.515625 181.644531 45.925781 173.0625 45.925781 162.515625 Z M 23.160156 225.101562 C 27.949219 206.21875 45.003906 192.628906 65.074219 192.625 C 65.078125 192.625 65.078125 192.625 65.082031 192.625 C 65.085938 192.625 65.085938 192.625 65.089844 192.625 C 71.441406 192.625 77.734375 194.027344 83.445312 196.703125 C 85.015625 206.738281 88.09375 216.28125 92.429688 225.101562 Z M 93.226562 181.1875 C 93.226562 132.113281 133.199219 92.191406 182.335938 92.191406 C 231.46875 92.191406 271.445312 132.113281 271.445312 181.1875 C 271.445312 230.257812 231.46875 270.179688 182.335938 270.179688 C 133.199219 270.179688 93.226562 230.253906 93.226562 181.1875 Z M 261.082031 242.835938 L 282.414062 263.511719 L 273.449219 272.742188 L 252.484375 252.425781 C 255.546875 249.414062 258.421875 246.214844 261.082031 242.835938 Z M 350.925781 321.484375 L 332.167969 340.792969 C 330.996094 341.996094 328.984375 342.027344 327.777344 340.855469 L 275.824219 290.507812 C 275.234375 289.941406 274.90625 289.164062 274.894531 288.332031 C 274.878906 287.496094 275.1875 286.710938 275.757812 286.125 L 294.515625 266.820312 C 295.085938 266.230469 295.863281 265.902344 296.699219 265.886719 C 296.714844 265.886719 296.730469 265.886719 296.746094 265.886719 C 297.566406 265.886719 298.332031 266.195312 298.90625 266.753906 L 350.859375 317.101562 C 352.066406 318.269531 352.097656 320.28125 350.925781 321.484375 Z M 182.335938 108.617188 C 142.269531 108.617188 109.671875 141.171875 109.671875 181.183594 C 109.671875 221.199219 142.269531 253.753906 182.335938 253.753906 C 222.402344 253.753906 255 221.199219 255 181.183594 C 255 141.171875 222.402344 108.617188 182.335938 108.617188 Z M 182.335938 119.59375 C 216.34375 119.59375 244.011719 147.222656 244.011719 181.183594 C 244.011719 194.839844 239.535156 207.46875 231.976562 217.695312 C 227.03125 203.019531 215.839844 191.417969 201.652344 185.824219 C 207.714844 180.476562 211.546875 172.664062 211.546875 163.96875 C 211.546875 147.882812 198.441406 134.796875 182.335938 134.796875 C 166.230469 134.796875 153.125 147.882812 153.125 163.96875 C 153.125 172.664062 156.957031 180.476562 163.019531 185.824219 C 148.832031 191.417969 137.640625 203.019531 132.695312 217.695312 C 125.136719 207.46875 120.660156 194.839844 120.660156 181.183594 C 120.660156 147.222656 148.328125 119.59375 182.335938 119.59375 Z M 182.335938 182.167969 C 182.332031 182.167969 182.332031 182.167969 182.328125 182.167969 C 172.285156 182.164062 164.113281 174 164.113281 163.96875 C 164.113281 153.933594 172.289062 145.773438 182.335938 145.773438 C 192.382812 145.773438 200.554688 153.933594 200.554688 163.96875 C 200.554688 174 192.386719 182.164062 182.339844 182.167969 C 182.339844 182.167969 182.339844 182.167969 182.335938 182.167969 Z M 141.550781 227.347656 C 144.964844 207.667969 162.03125 193.144531 182.328125 193.140625 C 182.332031 193.140625 182.332031 193.140625 182.335938 193.140625 C 182.339844 193.140625 182.339844 193.140625 182.34375 193.140625 C 202.640625 193.144531 219.707031 207.667969 223.117188 227.347656 C 212.238281 236.945312 197.957031 242.777344 182.335938 242.777344 C 166.714844 242.777344 152.429688 236.945312 141.550781 227.347656 Z M 176.839844 54.433594 L 176.839844 27.488281 C 176.839844 24.457031 179.300781 22 182.335938 22 C 185.371094 22 187.832031 24.457031 187.832031 27.488281 L 187.832031 54.433594 C 187.832031 57.464844 185.371094 59.921875 182.335938 59.921875 C 179.300781 59.921875 176.839844 57.464844 176.839844 54.433594 Z M 226.097656 60.613281 L 242.765625 39.421875 C 244.640625 37.039062 248.097656 36.625 250.484375 38.496094 C 252.871094 40.371094 253.285156 43.820312 251.410156 46.203125 L 234.738281 67.394531 C 233.65625 68.769531 232.042969 69.492188 230.414062 69.492188 C 229.226562 69.492188 228.03125 69.105469 227.023438 68.316406 C 224.636719 66.445312 224.222656 62.996094 226.097656 60.613281 Z M 113.261719 46.203125 C 111.386719 43.820312 111.800781 40.371094 114.1875 38.496094 C 116.574219 36.625 120.03125 37.039062 121.902344 39.421875 L 138.574219 60.613281 C 140.449219 62.996094 140.035156 66.445312 137.648438 68.316406 C 136.640625 69.105469 135.445312 69.492188 134.257812 69.492188 C 132.628906 69.492188 131.015625 68.769531 129.929688 67.394531 Z M 113.261719 46.203125 " fill-opacity="1" fill-rule="nonzero"/></g></svg>